<svg width="22" height="22" viewBox="0 0 22 22" fill="none" xmlns="http://www.w3.org/2000/svg">
<g clip-path="url(#clip0_272_1194)">
<path d="M18.5779 10.7556C17.4779 9.59444 16.0112 8.8 14.4834 8.49444C13.8112 8.31111 13.139 8.18889 12.4668 8.12777C14.1779 6.11111 13.8723 3.05555 11.8557 1.34444C9.83899 -0.36667 6.78343 -0.0611147 5.07232 1.95555C3.36121 3.97222 3.66676 7.02777 5.68343 8.73888C6.0501 9.04444 6.41676 9.28889 6.78343 9.41111V10.7556L5.80565 9.83889C4.9501 8.98333 3.54454 8.98333 2.62787 9.83889C1.77232 10.6944 1.71121 12.0389 2.56676 12.8944L5.37787 16.1944C5.5001 17.05 5.80565 17.8444 6.23343 18.5778C6.53899 19.1278 6.96676 19.6778 7.39454 20.1056V21.2667C7.39454 21.6333 7.63899 21.8778 8.00565 21.8778H16.3168C16.6223 21.8778 16.9279 21.5722 16.9279 21.2667V19.6778C18.089 18.2722 18.7001 16.5 18.7001 14.7278V11.1833C18.7612 10.9389 18.7001 10.8167 18.5779 10.7556ZM5.13343 5.01111C5.13343 2.99444 6.78343 1.40555 8.8001 1.46666C10.8168 1.46666 12.4057 3.11666 12.3445 5.13333C12.3445 6.23333 11.8557 7.21111 11.0001 7.88333V4.82777C10.9689 4.29817 10.7363 3.80056 10.35 3.43696C9.96362 3.07335 9.45284 2.8713 8.92232 2.87222C7.82232 2.81111 6.84454 3.72777 6.84454 4.82777V8.00555C5.80565 7.39444 5.19454 6.23333 5.13343 5.01111ZM17.539 14.6667C17.6001 16.2556 17.0501 17.7833 16.0112 19.0056C15.889 19.1278 15.7668 19.25 15.7668 19.4333V20.7167H8.67787V19.8611C8.67787 19.6778 8.55565 19.4944 8.43343 19.3722C8.00565 19.0056 7.63899 18.5778 7.33343 18.0278C6.96676 17.4167 6.72232 16.6833 6.6001 15.95C6.6001 15.8278 6.53899 15.7056 6.47787 15.5833L3.54454 12.1C3.36121 11.9167 3.23899 11.6722 3.23899 11.3667C3.23899 11.1222 3.36121 10.8167 3.54454 10.6333C3.97232 10.2667 4.58343 10.2667 5.01121 10.6333L6.78343 12.4056V14.2389L7.94454 13.6278V4.82777C8.00565 4.4 8.37232 4.03333 8.86121 4.09444C9.28899 4.09444 9.71676 4.4 9.71676 4.82777V11.8556L10.939 12.1V9.28889C11.0001 9.22777 11.0612 9.22777 11.1223 9.16666C11.5501 9.16666 11.9779 9.22777 12.4057 9.28889V12.4056L13.3834 12.5889V9.41111L14.1168 9.59444C14.4223 9.65555 14.7279 9.77777 15.0334 9.9V12.9556L16.0112 13.1389V10.3278C16.5612 10.5722 17.0501 10.9389 17.4779 11.3667L17.539 14.6667Z" fill="white"/>
</g>
<defs>
<clipPath id="clip0_272_1194">
<rect width="22" height="22" fill="white"/>
</clipPath>
</defs>
</svg>
