<svg width="16" height="16" viewBox="0 0 16 16" fill="none" xmlns="http://www.w3.org/2000/svg">
<g clip-path="url(#clip0_88_162)">
<path d="M15.2 3.2168C15.2024 3.1 15.1944 2.0448 14.16 1.0288C13.1416 0.0288 12.1144 0 12 0H3.9968C3.8056 0 2.8024 0.0504001 1.8304 1.0416C0.8288 2.0624 0.8 3.0872 0.8 3.2V5.6H0V8H0.8V12.8C0.8 13.3872 1.1248 13.8984 1.6 14.1768V15.2C1.6 15.4122 1.68429 15.6157 1.83431 15.7657C1.98434 15.9157 2.18783 16 2.4 16H3.2C3.41217 16 3.61566 15.9157 3.76569 15.7657C3.91571 15.6157 4 15.4122 4 15.2V14.4H12V15.2C12 15.4122 12.0843 15.6157 12.2343 15.7657C12.3843 15.9157 12.5878 16 12.8 16H13.6C13.8122 16 14.0157 15.9157 14.1657 15.7657C14.3157 15.6157 14.4 15.4122 14.4 15.2V14.1784C14.6427 14.0392 14.8445 13.8385 14.9849 13.5965C15.1253 13.3545 15.1995 13.0798 15.2 12.8V8H16V5.6H15.2V3.2168ZM5.6 1.6H10.4V3.2H5.6V1.6ZM3.6 12.8C3.28163 12.7999 2.97635 12.6733 2.75131 12.4481C2.52626 12.2229 2.39989 11.9176 2.4 11.5992C2.40011 11.2808 2.52668 10.9755 2.75187 10.7505C2.97707 10.5255 3.28243 10.3991 3.6008 10.3992C3.91917 10.3993 4.22445 10.5259 4.44949 10.7511C4.67454 10.9763 4.80091 11.2816 4.8008 11.6C4.80069 11.9184 4.67412 12.2236 4.44893 12.4487C4.22373 12.6737 3.91837 12.8001 3.6 12.8ZM7.2 8.8H2.4V4.8H7.2V8.8ZM12.4 12.8C12.0816 12.7999 11.7764 12.6733 11.5513 12.4481C11.3263 12.2229 11.1999 11.9176 11.2 11.5992C11.2001 11.2808 11.3267 10.9755 11.5519 10.7505C11.7771 10.5255 12.0824 10.3991 12.4008 10.3992C12.7192 10.3993 13.0245 10.5259 13.2495 10.7511C13.4745 10.9763 13.6009 11.2816 13.6008 11.6C13.6007 11.9184 13.4741 12.2236 13.2489 12.4487C13.0237 12.6737 12.7184 12.8001 12.4 12.8ZM13.6 8.8H8.8V4.8H13.6V8.8Z" fill="#374168"/>
</g>
<defs>
<clipPath id="clip0_88_162">
<rect width="16" height="16" fill="white"/>
</clipPath>
</defs>
</svg>
