<svg width="16" height="16" viewBox="0 0 16 16" fill="none" xmlns="http://www.w3.org/2000/svg">
<g clip-path="url(#clip0_88_174)">
<path fill-rule="evenodd" clip-rule="evenodd" d="M1.88547 0.512123C2.06045 0.337412 2.27055 0.201882 2.50187 0.114513C2.73318 0.0271451 2.98043 -0.0100659 3.22721 0.00534634C3.47399 0.0207585 3.71469 0.088442 3.93333 0.203911C4.15198 0.319381 4.34359 0.48 4.49547 0.675123L6.29047 2.98112C6.61947 3.40412 6.73547 3.95512 6.60547 4.47512L6.05847 6.66512C6.03019 6.77855 6.03172 6.89737 6.06291 7.01003C6.0941 7.1227 6.15388 7.22538 6.23647 7.30812L8.69347 9.76512C8.77631 9.84788 8.87916 9.90777 8.99202 9.93896C9.10488 9.97015 9.22389 9.97159 9.33747 9.94312L11.5265 9.39612C11.7831 9.33196 12.0509 9.32698 12.3098 9.38155C12.5686 9.43612 12.8116 9.54882 13.0205 9.71112L15.3265 11.5051C16.1555 12.1501 16.2315 13.3751 15.4895 14.1161L14.4555 15.1501C13.7155 15.8901 12.6095 16.2151 11.5785 15.8521C8.93965 14.9236 6.54374 13.413 4.56847 11.4321C2.58776 9.45714 1.07708 7.06158 0.148471 4.42312C-0.213529 3.39312 0.111471 2.28612 0.851471 1.54612L1.88547 0.512123Z" fill="#374168"/>
</g>
<defs>
<clipPath id="clip0_88_174">
<rect width="16" height="16" fill="white"/>
</clipPath>
</defs>
</svg>
