<svg width="42" height="59" viewBox="0 0 42 59" fill="none" xmlns="http://www.w3.org/2000/svg">
<path d="M21 0.000244141C9.39 0.000244141 0 9.23374 0 20.6502C0 36.1377 21 59.0002 21 59.0002C21 59.0002 42 36.1377 42 20.6502C42 9.23374 32.61 0.000244141 21 0.000244141ZM21 28.0252C16.86 28.0252 13.5 24.7212 13.5 20.6502C13.5 16.5792 16.86 13.2752 21 13.2752C25.14 13.2752 28.5 16.5792 28.5 20.6502C28.5 24.7212 25.14 28.0252 21 28.0252Z" fill="#3B4FA2"/>
<rect x="5" y="5" width="32" height="32" rx="16" fill="white"/>
<path fill-rule="evenodd" clip-rule="evenodd" d="M14.3883 14.1426C14.2682 14.1426 14.1612 14.2183 14.1213 14.3316L12.2023 19.7821C12.1375 19.9662 12.2741 20.1591 12.4692 20.1591H17.259C17.3791 20.1591 17.4861 20.0834 17.5259 19.9701L19.445 14.5196C19.5098 14.3355 19.3732 14.1426 19.178 14.1426H14.3883ZM20.8549 14.1426C20.7348 14.1426 20.6278 14.2183 20.588 14.3316L18.6689 19.7821C18.6041 19.9662 18.7407 20.1591 18.9359 20.1591H23.7256C23.8457 20.1591 23.9527 20.0834 23.9926 19.9701L25.9116 14.5196C25.9764 14.3355 25.8398 14.1426 25.6447 14.1426H20.8549ZM27.0567 14.3316C27.0965 14.2183 27.2035 14.1426 27.3236 14.1426H32.1134C32.3085 14.1426 32.4451 14.3355 32.3803 14.5196L30.4613 19.9701C30.4214 20.0834 30.3144 20.1591 30.1943 20.1591H25.4046C25.2094 20.1591 25.0728 19.9662 25.1376 19.7821L27.0567 14.3316ZM11.7679 21.1621C11.6479 21.1621 11.5409 21.2379 11.501 21.3511L9.58195 26.8017C9.51714 26.9858 9.65373 27.1787 9.8489 27.1787H14.6387C14.7587 27.1787 14.8657 27.1029 14.9056 26.9896L16.8246 21.5391C16.8895 21.355 16.7529 21.1621 16.5577 21.1621H11.7679ZM17.9688 21.3511C18.0086 21.2379 18.1156 21.1621 18.2357 21.1621H23.0255C23.2206 21.1621 23.3572 21.355 23.2924 21.5391L21.3734 26.9896C21.3335 27.1029 21.2265 27.1787 21.1064 27.1787H16.3167C16.1215 27.1787 15.9849 26.9858 16.0497 26.8017L17.9688 21.3511ZM24.7035 21.1621C24.5834 21.1621 24.4764 21.2379 24.4365 21.3511L22.5175 26.8017C22.4527 26.9858 22.5893 27.1787 22.7844 27.1787H27.5742C27.6943 27.1787 27.8013 27.1029 27.8411 26.9896L29.7602 21.5391C29.825 21.355 29.6884 21.1621 29.4932 21.1621H24.7035Z" fill="url(#paint0_linear_88_149)"/>
<defs>
<linearGradient id="paint0_linear_88_149" x1="31.3417" y1="14.1426" x2="8.40478" y2="16.6778" gradientUnits="userSpaceOnUse">
<stop stop-color="#FFB571"/>
<stop offset="1" stop-color="#FB9435"/>
</linearGradient>
</defs>
</svg>
