<svg width="18" height="18" viewBox="0 0 18 18" fill="none" xmlns="http://www.w3.org/2000/svg">
<path fill-rule="evenodd" clip-rule="evenodd" d="M1.125 8.99998C1.125 8.85079 1.18426 8.70772 1.28975 8.60223C1.39524 8.49674 1.53832 8.43748 1.6875 8.43748H14.9546L11.4142 4.89823C11.3086 4.79261 11.2493 4.64935 11.2493 4.49998C11.2493 4.35061 11.3086 4.20735 11.4142 4.10173C11.5199 3.99611 11.6631 3.93677 11.8125 3.93677C11.9619 3.93677 12.1051 3.99611 12.2108 4.10173L16.7108 8.60173C16.7631 8.65398 16.8047 8.71605 16.8331 8.78439C16.8614 8.85273 16.876 8.92599 16.876 8.99998C16.876 9.07397 16.8614 9.14723 16.8331 9.21557C16.8047 9.2839 16.7631 9.34598 16.7108 9.39823L12.2108 13.8982C12.1051 14.0039 11.9619 14.0632 11.8125 14.0632C11.6631 14.0632 11.5199 14.0039 11.4142 13.8982C11.3086 13.7926 11.2493 13.6494 11.2493 13.5C11.2493 13.3506 11.3086 13.2074 11.4142 13.1017L14.9546 9.56248H1.6875C1.53832 9.56248 1.39524 9.50322 1.28975 9.39773C1.18426 9.29224 1.125 9.14916 1.125 8.99998V8.99998Z" fill="#FC9E47"/>
</svg>
