<svg width="175" height="35" viewBox="0 0 175 35" fill="none" xmlns="http://www.w3.org/2000/svg">
<path d="M59.82 12.94C59.76 12.84 59.55 12.69 59.19 12.49C58.83 12.27 58.38 12.04 57.84 11.8C57.3 11.56 56.71 11.35 56.07 11.17C55.43 10.99 54.79 10.9 54.15 10.9C53.31 10.9 52.66 11.05 52.2 11.35C51.74 11.63 51.51 12.07 51.51 12.67C51.51 13.15 51.68 13.53 52.02 13.81C52.38 14.09 52.89 14.34 53.55 14.56C54.21 14.76 55.02 15 55.98 15.28C57.34 15.64 58.52 16.08 59.52 16.6C60.52 17.1 61.28 17.75 61.8 18.55C62.34 19.35 62.61 20.41 62.61 21.73C62.61 22.93 62.39 23.95 61.95 24.79C61.51 25.61 60.91 26.28 60.15 26.8C59.41 27.3 58.56 27.67 57.6 27.91C56.64 28.13 55.65 28.24 54.63 28.24C53.59 28.24 52.52 28.14 51.42 27.94C50.34 27.72 49.3 27.42 48.3 27.04C47.3 26.64 46.38 26.16 45.54 25.6L47.7 21.31C47.78 21.41 48.04 21.6 48.48 21.88C48.92 22.14 49.46 22.42 50.1 22.72C50.76 23 51.49 23.25 52.29 23.47C53.09 23.69 53.9 23.8 54.72 23.8C55.6 23.8 56.25 23.66 56.67 23.38C57.11 23.1 57.33 22.71 57.33 22.21C57.33 21.67 57.1 21.25 56.64 20.95C56.2 20.65 55.59 20.38 54.81 20.14C54.05 19.9 53.17 19.63 52.17 19.33C50.87 18.93 49.79 18.48 48.93 17.98C48.09 17.48 47.46 16.87 47.04 16.15C46.64 15.43 46.44 14.53 46.44 13.45C46.44 11.95 46.79 10.69 47.49 9.67C48.21 8.63 49.17 7.85 50.37 7.33C51.57 6.79 52.88 6.52 54.3 6.52C55.3 6.52 56.26 6.64 57.18 6.88C58.12 7.12 58.99 7.42 59.79 7.78C60.61 8.14 61.34 8.5 61.98 8.86L59.82 12.94ZM64.8398 22.33V12.25H69.6398V21.28C69.6398 22.24 69.8298 22.98 70.2098 23.5C70.5898 24 71.1298 24.25 71.8298 24.25C72.2698 24.25 72.6898 24.18 73.0898 24.04C73.4898 23.88 73.8798 23.63 74.2598 23.29C74.6398 22.95 74.9798 22.51 75.2798 21.97V12.25H80.0798V22.66C80.0798 23.14 80.1498 23.48 80.2898 23.68C80.4498 23.86 80.7198 23.97 81.0998 24.01V28C80.6598 28.08 80.2698 28.14 79.9298 28.18C79.6098 28.22 79.3198 28.24 79.0598 28.24C78.2198 28.24 77.5498 28.07 77.0498 27.73C76.5498 27.37 76.2398 26.87 76.1198 26.23L76.0298 25.27C75.3098 26.31 74.4098 27.08 73.3298 27.58C72.2698 28.06 71.0798 28.3 69.7598 28.3C68.1598 28.3 66.9398 27.79 66.0998 26.77C65.2598 25.75 64.8398 24.27 64.8398 22.33ZM98.9784 28H94.1784V19.15C94.1784 18.11 93.9784 17.36 93.5784 16.9C93.1984 16.42 92.6884 16.18 92.0484 16.18C91.6084 16.18 91.1584 16.3 90.6984 16.54C90.2384 16.78 89.8184 17.11 89.4384 17.53C89.0784 17.95 88.7984 18.43 88.5984 18.97V28H83.7984V12.25H88.1184V14.89C88.5184 14.27 89.0184 13.74 89.6184 13.3C90.2184 12.86 90.9084 12.53 91.6884 12.31C92.4684 12.07 93.3184 11.95 94.2384 11.95C95.2584 11.95 96.0784 12.14 96.6984 12.52C97.3384 12.88 97.8184 13.36 98.1384 13.96C98.4784 14.56 98.6984 15.21 98.7984 15.91C98.9184 16.59 98.9784 17.26 98.9784 17.92V28ZM106.013 28L100.433 12.25H105.383L108.833 23.68L112.283 12.25H116.783L111.233 28H106.013ZM125.606 28.3C124.266 28.3 123.076 28.09 122.036 27.67C120.996 27.23 120.106 26.64 119.366 25.9C118.646 25.16 118.096 24.31 117.716 23.35C117.336 22.37 117.146 21.35 117.146 20.29C117.146 18.77 117.476 17.39 118.136 16.15C118.816 14.89 119.786 13.88 121.046 13.12C122.306 12.34 123.826 11.95 125.606 11.95C127.386 11.95 128.896 12.33 130.136 13.09C131.396 13.85 132.356 14.85 133.016 16.09C133.676 17.31 134.006 18.64 134.006 20.08C134.006 20.36 133.986 20.64 133.946 20.92C133.926 21.18 133.906 21.41 133.886 21.61H122.246C122.306 22.31 122.496 22.9 122.816 23.38C123.156 23.86 123.586 24.23 124.106 24.49C124.626 24.73 125.176 24.85 125.756 24.85C126.476 24.85 127.146 24.68 127.766 24.34C128.406 24 128.846 23.54 129.086 22.96L133.166 24.1C132.766 24.92 132.196 25.65 131.456 26.29C130.736 26.91 129.876 27.4 128.876 27.76C127.896 28.12 126.806 28.3 125.606 28.3ZM122.126 18.67H128.966C128.886 18.01 128.696 17.44 128.396 16.96C128.096 16.46 127.696 16.08 127.196 15.82C126.696 15.54 126.146 15.4 125.546 15.4C124.926 15.4 124.366 15.54 123.866 15.82C123.386 16.08 122.996 16.46 122.696 16.96C122.396 17.44 122.206 18.01 122.126 18.67ZM143.711 28.3C142.371 28.3 141.181 28.09 140.141 27.67C139.101 27.23 138.211 26.64 137.471 25.9C136.751 25.16 136.201 24.31 135.821 23.35C135.441 22.37 135.251 21.35 135.251 20.29C135.251 18.77 135.581 17.39 136.241 16.15C136.921 14.89 137.891 13.88 139.151 13.12C140.411 12.34 141.931 11.95 143.711 11.95C145.491 11.95 147.001 12.33 148.241 13.09C149.501 13.85 150.461 14.85 151.121 16.09C151.781 17.31 152.111 18.64 152.111 20.08C152.111 20.36 152.091 20.64 152.051 20.92C152.031 21.18 152.011 21.41 151.991 21.61H140.351C140.411 22.31 140.601 22.9 140.921 23.38C141.261 23.86 141.691 24.23 142.211 24.49C142.731 24.73 143.281 24.85 143.861 24.85C144.581 24.85 145.251 24.68 145.871 24.34C146.511 24 146.951 23.54 147.191 22.96L151.271 24.1C150.871 24.92 150.301 25.65 149.561 26.29C148.841 26.91 147.981 27.4 146.981 27.76C146.001 28.12 144.911 28.3 143.711 28.3ZM140.231 18.67H147.071C146.991 18.01 146.801 17.44 146.501 16.96C146.201 16.46 145.801 16.08 145.301 15.82C144.801 15.54 144.251 15.4 143.651 15.4C143.031 15.4 142.471 15.54 141.971 15.82C141.491 16.08 141.101 16.46 140.801 16.96C140.501 17.44 140.311 18.01 140.231 18.67ZM169.467 28H164.667V19.15C164.667 18.11 164.467 17.36 164.067 16.9C163.687 16.42 163.177 16.18 162.537 16.18C162.097 16.18 161.647 16.3 161.187 16.54C160.727 16.78 160.307 17.11 159.927 17.53C159.567 17.95 159.287 18.43 159.087 18.97V28H154.287V12.25H158.607V14.89C159.007 14.27 159.507 13.74 160.107 13.3C160.707 12.86 161.397 12.53 162.177 12.31C162.957 12.07 163.807 11.95 164.727 11.95C165.747 11.95 166.567 12.14 167.187 12.52C167.827 12.88 168.307 13.36 168.627 13.96C168.967 14.56 169.187 15.21 169.287 15.91C169.407 16.59 169.467 17.26 169.467 17.92V28Z" fill="#FC9E47"/>
<path fill-rule="evenodd" clip-rule="evenodd" d="M8.45297 5C8.24044 5 8.05113 5.13436 7.98099 5.33498L4.61925 14.9504C4.5056 15.2754 4.74688 15.6154 5.09123 15.6154H13.475C13.6875 15.6154 13.8768 15.481 13.947 15.2804L17.3087 5.66502C17.4224 5.33996 17.1811 5 16.8367 5H8.45297ZM19.784 5C19.5715 5 19.3822 5.13436 19.312 5.33498L15.9503 14.9504C15.8367 15.2754 16.0779 15.6154 16.4223 15.6154H24.806C25.0186 15.6154 25.2079 15.481 25.278 15.2804L28.6398 5.66502C28.7534 5.33996 28.5121 5 28.1678 5H19.784ZM30.6438 5.33498C30.714 5.13436 30.9033 5 31.1158 5H39.4996C39.8439 5 40.0852 5.33996 39.9716 5.66502L36.6098 15.2804C36.5397 15.481 36.3504 15.6154 36.1378 15.6154H27.7541C27.4097 15.6154 27.1685 15.2754 27.2821 14.9504L30.6438 5.33498ZM3.86215 17.3848C3.64962 17.3848 3.46031 17.5191 3.39017 17.7197L0.0284255 27.3351C-0.0852218 27.6602 0.156058 28.0001 0.50041 28.0001H8.88416C9.0967 28.0001 9.28601 27.8658 9.35615 27.6652L12.7179 18.0498C12.8315 17.7247 12.5903 17.3848 12.2459 17.3848H3.86215ZM14.7222 17.7197C14.7923 17.5191 14.9816 17.3848 15.1942 17.3848H23.5779C23.9223 17.3848 24.1636 17.7247 24.0499 18.0498L20.6882 27.6652C20.618 27.8658 20.4287 28.0001 20.2162 28.0001H11.8324C11.4881 28.0001 11.2468 27.6602 11.3605 27.3351L14.7222 17.7197ZM26.5262 17.3848C26.3137 17.3848 26.1244 17.5191 26.0542 17.7197L22.6925 27.3351C22.5788 27.6602 22.8201 28.0001 23.1645 28.0001H31.5482C31.7608 28.0001 31.9501 27.8658 32.0202 27.6652L35.382 18.0498C35.4956 17.7247 35.2543 17.3848 34.91 17.3848H26.5262Z" fill="url(#paint0_linear_88_138)"/>
<defs>
<linearGradient id="paint0_linear_88_138" x1="38.1523" y1="5" x2="-2.04022" y2="9.41138" gradientUnits="userSpaceOnUse">
<stop stop-color="#FFB571"/>
<stop offset="1" stop-color="#FB9435"/>
</linearGradient>
</defs>
</svg>
