<svg width="36" height="40" viewBox="0 0 36 40" fill="none" xmlns="http://www.w3.org/2000/svg">
<path d="M24.1875 39.9376H2.1875C1.82288 39.9376 1.47299 39.7927 1.21518 39.5349C0.95737 39.2771 0.8125 38.9272 0.8125 38.5626V6.93757C0.8125 6.57295 0.95737 6.22306 1.21518 5.96525C1.47299 5.70744 1.82288 5.56257 2.1875 5.56257H18C18.1826 5.56165 18.3585 5.63316 18.488 5.76207L25.363 12.6371C25.4919 12.7666 25.5634 12.9425 25.5625 13.1251V38.5626C25.5625 38.9272 25.4176 39.2771 25.1598 39.5349C24.902 39.7927 24.5521 39.9376 24.1875 39.9376ZM2.1875 6.93757V38.5626H24.1875V13.4071L17.7182 6.93788L2.1875 6.93757Z" fill="white"/>
<path d="M24.875 13.8126H18.6875C18.3229 13.8126 17.973 13.6677 17.7152 13.4099C17.4574 13.1521 17.3125 12.8022 17.3125 12.4376V6.25007C17.314 5.97261 17.4819 5.72309 17.7388 5.6175C17.9948 5.50977 18.2903 5.56686 18.488 5.76206L25.363 12.6371C25.5582 12.8347 25.6153 13.1303 25.5075 13.3862C25.402 13.6431 25.1524 13.811 24.875 13.8126ZM18.6875 7.90682V12.4376H23.2182L18.6875 7.90682Z" fill="white"/>
<path d="M13.5308 11.7501H5.625C5.24534 11.7501 4.9375 11.4422 4.9375 11.0626C4.9375 10.6829 5.24534 10.3751 5.625 10.3751H13.5308C13.9105 10.3751 14.2183 10.6829 14.2183 11.0626C14.2183 11.4422 13.9105 11.7501 13.5308 11.7501Z" fill="white"/>
<path d="M20.0625 17.9376H5.625C5.24534 17.9376 4.9375 17.6297 4.9375 17.2501C4.9375 16.8704 5.24534 16.5626 5.625 16.5626H20.0625C20.4421 16.5626 20.75 16.8704 20.75 17.2501C20.75 17.6297 20.4421 17.9376 20.0625 17.9376Z" fill="white"/>
<path d="M20.0625 22.7501H5.625C5.24534 22.7501 4.9375 22.4422 4.9375 22.0626C4.9375 21.6829 5.24534 21.3751 5.625 21.3751H20.0625C20.4421 21.3751 20.75 21.6829 20.75 22.0626C20.75 22.4422 20.4421 22.7501 20.0625 22.7501Z" fill="white"/>
<path d="M20.0625 27.5625H5.625C5.24534 27.5625 4.9375 27.2547 4.9375 26.875C4.9375 26.4954 5.24534 26.1876 5.625 26.1876H20.0625C20.4421 26.1876 20.75 26.4954 20.75 26.875C20.75 27.2547 20.4421 27.5625 20.0625 27.5625Z" fill="white"/>
<path d="M16.061 35.1252C15.852 35.1243 15.6546 35.0282 15.5248 34.864L14.0261 32.9939C13.9052 32.8524 13.8469 32.6679 13.8644 32.4829C13.8819 32.2975 13.9739 32.1272 14.1191 32.0108C14.2643 31.8945 14.4503 31.842 14.6351 31.8653C14.8195 31.8887 14.9868 31.9857 15.0985 32.1345L16.1708 33.5095L20.887 29.8038H20.8873C21.1871 29.5683 21.6211 29.6208 21.8565 29.9207C22.0919 30.2209 22.0398 30.6549 21.7399 30.8903L16.4872 35.0153C16.3611 35.0976 16.2113 35.1362 16.0609 35.1252H16.061Z" fill="white"/>
<path d="M33.8125 34.4375H24.875C24.4954 34.4375 24.1875 34.1297 24.1875 33.75V13.4071L17.7182 6.93787H11.125C10.7453 6.93787 10.4375 6.63003 10.4375 6.25037V1.43787C10.4375 1.07326 10.5824 0.723362 10.8402 0.465553C11.098 0.207745 11.4479 0.062875 11.8125 0.062875H27.625C27.8076 0.0619542 27.9835 0.133467 28.113 0.262376L34.988 7.13737C35.1169 7.26689 35.1884 7.44275 35.1875 7.62537V33.0629C35.1875 33.4275 35.0427 33.7774 34.7848 34.0352C34.527 34.293 34.1771 34.4379 33.8125 34.4379V34.4375ZM25.5625 33.0625H33.8125V7.90713L27.3433 1.43787H11.8128V5.56287H18.0003C18.1829 5.56195 18.3588 5.63346 18.4883 5.76237L25.3633 12.6374C25.4922 12.7669 25.5637 12.9428 25.5628 13.1254L25.5625 33.0625Z" fill="white"/>
<path d="M34.5 8.31257H28.3125C27.9479 8.31257 27.598 8.1677 27.3402 7.90989C27.0824 7.65208 26.9375 7.30219 26.9375 6.93757V0.750066C26.939 0.472615 27.1069 0.223088 27.3638 0.117503C27.6198 0.00977411 27.9154 0.0668617 28.113 0.262059L34.9881 7.13706C35.1833 7.33471 35.2403 7.63028 35.1326 7.88625C35.027 8.14314 34.7775 8.31103 34.5 8.31257ZM28.3125 2.40682V6.93757H32.8433L28.3125 2.40682Z" fill="white"/>
<path d="M23.1552 5.5625H20.0615C19.6819 5.5625 19.374 5.25466 19.374 4.875C19.374 4.49534 19.6819 4.1875 20.0615 4.1875H23.1552C23.5349 4.1875 23.8427 4.49534 23.8427 4.875C23.8427 5.25466 23.5349 5.5625 23.1552 5.5625Z" fill="white"/>
<path d="M30.375 12.4376H26.9375C26.5578 12.4376 26.25 12.1297 26.25 11.7501C26.25 11.3704 26.5578 11.0626 26.9375 11.0626H30.375C30.7546 11.0626 31.0625 11.3704 31.0625 11.7501C31.0625 12.1297 30.7546 12.4376 30.375 12.4376Z" fill="white"/>
<path d="M30.375 17.25H26.9375C26.5578 17.25 26.25 16.9422 26.25 16.5626C26.25 16.1829 26.5578 15.8751 26.9375 15.8751H30.375C30.7546 15.8751 31.0625 16.1829 31.0625 16.5626C31.0625 16.9422 30.7546 17.25 30.375 17.25Z" fill="white"/>
<path d="M30.375 22.0626H26.9375C26.5578 22.0626 26.25 21.7547 26.25 21.3751C26.25 20.9954 26.5578 20.6876 26.9375 20.6876H30.375C30.7546 20.6876 31.0625 20.9954 31.0625 21.3751C31.0625 21.7547 30.7546 22.0626 30.375 22.0626Z" fill="white"/>
</svg>
