<svg width="40" height="44" viewBox="0 0 40 44" fill="none" xmlns="http://www.w3.org/2000/svg">
<path d="M8.4304 13.1361H31.5469C31.8108 13.1361 32.0242 12.9228 32.0242 12.6589C32.0242 12.3949 31.8108 12.1816 31.5469 12.1816H30.6852C30.1649 6.72972 27.6304 3.37549 23.1481 2.20049V1.4556C23.1481 1.12876 22.9171 0.843511 22.5976 0.77561C21.0319 0.450761 19.3791 0.440774 17.7897 0.744656C17.4632 0.806231 17.2266 1.09247 17.2266 1.42597V2.16321C12.1964 3.36572 9.96502 8.1982 9.56098 12.1818H8.43063C8.16669 12.1818 7.95334 12.3951 7.95334 12.6591C7.95334 12.9227 8.16669 13.136 8.43063 13.136L8.4304 13.1361ZM20.1233 5.34505C21.5431 5.34505 22.6981 6.50036 22.6981 7.92024C22.6981 9.34012 21.5428 10.4951 20.1233 10.4951C18.7027 10.4951 17.5481 9.33978 17.5481 7.92024C17.5477 6.50036 18.7027 5.34505 20.1233 5.34505ZM22.1942 1.6695V5.06847C21.6117 4.64443 20.8971 4.39081 20.1233 4.39081C19.406 4.39081 18.7387 4.60683 18.1812 4.97627L18.1815 1.64394C19.5132 1.41528 20.8848 1.42394 22.1942 1.66957L22.1942 1.6695ZM17.2266 3.1463V5.9092C16.8285 6.48035 16.5935 7.17332 16.5935 7.92084C16.5935 9.86661 18.1768 11.4499 20.1229 11.4499C22.0687 11.4499 23.652 9.86661 23.652 7.92084C23.652 7.25949 23.466 6.64206 23.1478 6.1119V3.18796C27.0789 4.30894 29.2353 7.25955 29.7253 12.1815H10.5215C10.9106 8.59848 12.876 4.31354 17.2268 3.14621L17.2266 3.1463ZM25.4863 7.9245C25.2014 7.9245 24.9704 8.15548 24.9704 8.4404C24.9704 8.72531 25.2014 8.9563 25.4863 8.9563C25.7712 8.9563 26.0022 8.72531 26.0022 8.4404C26.0019 8.15548 25.7709 7.9245 25.4863 7.9245ZM29.1631 40.9539C29.1631 41.2388 29.3941 41.4698 29.679 41.4698C29.9639 41.4698 30.1949 41.2388 30.1949 40.9539C30.1949 40.669 29.9639 40.438 29.679 40.438C29.3935 40.4387 29.1631 40.6696 29.1631 40.9539ZM11.0994 40.9539C11.0994 40.669 10.8684 40.438 10.5835 40.438C10.2986 40.438 10.0676 40.669 10.0676 40.9539C10.0676 41.2388 10.2986 41.4698 10.5835 41.4698C10.8687 41.4698 11.0994 41.2388 11.0994 40.9539ZM14.8897 7.9245C14.6048 7.9245 14.3738 8.15548 14.3738 8.4404C14.3738 8.72531 14.6048 8.9563 14.8897 8.9563C15.1746 8.9563 15.4056 8.72531 15.4056 8.4404C15.4053 8.15548 15.1743 7.9245 14.8897 7.9245ZM19.9885 29.0863C21.418 29.0863 22.7437 28.9213 23.9293 28.5954C24.1835 28.5259 24.333 28.2632 24.2628 28.009C24.1932 27.754 23.9269 27.6042 23.6763 27.6755C22.5726 27.9783 21.3321 28.1321 19.9885 28.1321C18.6748 28.1321 17.2569 27.9384 15.9967 27.5859C15.7434 27.5154 15.4795 27.6628 15.409 27.9164C15.3384 28.1704 15.4862 28.4337 15.7395 28.5042C17.0811 28.88 18.5899 29.0863 19.9884 29.0863L19.9885 29.0863ZM37.9423 33.5331C37.6011 31.1903 35.9998 29.2532 33.7552 28.4757L26.0926 25.9604C25.6412 25.8119 25.318 25.4115 25.2684 24.9313L24.9086 21.9241C27.6353 20.2891 29.4691 17.314 29.4691 13.9103H28.5149C28.5149 18.5381 24.7496 22.3035 20.1218 22.3035C15.4939 22.3035 11.7286 18.5381 11.7286 13.9103H10.7744C10.7744 17.2051 12.4921 20.1011 15.075 21.7663L14.7198 25.0367C14.6739 25.5157 14.3497 25.9214 13.8921 26.0692L6.48246 28.478C4.24512 29.2528 2.64315 31.1903 2.30301 33.5261L0.763672 43.0658H1.73954L3.24633 33.671C3.53589 31.6816 4.89584 30.038 6.78639 29.3834L11.6208 27.8117V42.025H9.54623V29.4392L8.592 29.7011V42.978H12.5754V27.5002L14.1877 26.9764C14.643 26.8289 15.0208 26.5354 15.2847 26.1609C16.6391 26.6915 18.3584 27.0053 19.9883 27.0053C21.8372 27.0053 23.4296 26.6965 24.7342 26.0927C24.9959 26.4472 25.3603 26.7241 25.7953 26.8665L27.6861 27.4873V42.9786H31.6695V29.7009L30.7153 29.4064V42.0237H28.6404V27.8002L33.4502 29.3792C35.3487 30.0369 36.7083 31.6804 36.9992 33.6765L38.5056 43.0654H39.4729L37.9423 33.5331ZM19.9885 26.0519C18.4757 26.0519 16.8884 25.7647 15.6459 25.2784C15.6539 25.2301 15.6659 25.1835 15.6702 25.1343L15.9838 22.2788C17.2336 22.8996 18.6355 23.2573 20.1226 23.2573C21.5089 23.2573 22.8209 22.9458 24.0051 22.4023L24.3206 25.0367C24.3269 25.0986 24.3416 25.1579 24.3529 25.2181C23.171 25.7696 21.7075 26.0519 19.9884 26.0519L19.9885 26.0519ZM20.1875 3.93573C20.4514 3.93573 20.6648 3.72239 20.6648 3.45844L20.6645 2.53481C20.6645 2.27086 20.4511 2.05751 20.1872 2.05751C19.9232 2.05751 19.7099 2.27086 19.7099 2.53481V3.45844C19.7102 3.72205 19.9236 3.93573 20.1875 3.93573ZM13.4525 39.6704H26.8154V38.7162L13.4525 38.7159V39.6704ZM16.465 43.0644H23.8027V42.1101H16.465V43.0644Z" fill="white"/>
</svg>
