<svg width="45" height="44" viewBox="0 0 45 44" fill="none" xmlns="http://www.w3.org/2000/svg">
<path d="M8.1949 8.06429C9.80325 8.06429 11.1067 9.36778 11.1067 10.9761V14.7267C11.1067 15.0111 11.3426 15.2466 11.6267 15.2466C11.9111 15.2466 12.1466 15.0108 12.1466 14.7267V10.9761C12.1466 8.95867 10.6283 7.29476 8.67335 7.05919C9.4566 6.35191 9.95577 5.32607 9.95577 4.18885C9.95577 2.04654 8.21562 0.306396 6.07331 0.306396C3.93099 0.306396 2.19085 2.04654 2.19085 4.18885C2.19085 5.32575 2.69004 6.35192 3.47326 7.05919C1.51831 7.29506 0 8.95891 0 10.9761V14.7267C0 15.0111 0.235868 15.2466 0.519936 15.2466C0.804322 15.2466 1.03987 15.0108 1.03987 14.7267V10.9761C1.03987 9.37448 2.34337 8.06429 3.95172 8.06429H8.1949ZM3.23079 4.18885C3.23079 2.62201 4.5065 1.3463 6.07334 1.3463C7.64018 1.3463 8.9159 2.62201 8.9159 4.18885C8.9159 5.7557 7.64018 7.03141 6.07334 7.03141C4.5065 7.03141 3.23079 5.7557 3.23079 4.18885Z" fill="white"/>
<path d="M8.36035 12.4529V14.727C8.36035 15.0114 8.59622 15.2469 8.88029 15.2469C9.16467 15.2469 9.40022 15.011 9.40022 14.727V12.4529C9.40022 12.1685 9.16436 11.9329 8.88029 11.9329C8.5959 11.9329 8.36035 12.1685 8.36035 12.4529Z" fill="white"/>
<path d="M3.78499 14.7276V12.4535C3.78499 12.1691 3.54912 11.9336 3.26505 11.9336C2.98067 11.9336 2.74512 12.1695 2.74512 12.4535V14.7276C2.74512 15.012 2.98099 15.2476 3.26505 15.2476C3.54912 15.2476 3.78499 15.0117 3.78499 14.7276Z" fill="white"/>
<path d="M40.5503 7.05943C41.3336 6.35215 41.8327 5.32632 41.8327 4.1891C41.8327 2.04679 40.0926 0.306641 37.9503 0.306641C35.8079 0.306641 34.0678 2.04679 34.0678 4.1891C34.0678 5.32599 34.567 6.35217 35.3502 7.05943C33.3953 7.2953 31.877 8.95916 31.877 10.9764V14.727C31.877 15.0113 32.1128 15.2469 32.3969 15.2469C32.6813 15.2469 32.9168 15.011 32.9168 14.727V10.9764C32.9168 9.37473 34.2203 8.06453 35.8287 8.06453H40.0715C41.6798 8.06453 42.9833 9.36803 42.9833 10.9764V14.727C42.9833 15.0113 43.2192 15.2469 43.5032 15.2469C43.7876 15.2469 44.0232 15.011 44.0232 14.727V10.9764C44.0235 8.95916 42.5052 7.295 40.5502 7.05943H40.5503ZM35.1078 4.1891C35.1078 2.62226 36.3835 1.34654 37.9503 1.34654C39.5172 1.34654 40.7929 2.62226 40.7929 4.1891C40.7929 5.75594 39.5172 7.03165 37.9503 7.03165C36.3835 7.03165 35.1078 5.75594 35.1078 4.1891Z" fill="white"/>
<path d="M40.7582 11.9332C40.4738 11.9332 40.2383 12.169 40.2383 12.4531V14.7272C40.2383 15.0116 40.4741 15.2471 40.7582 15.2471C41.0426 15.2471 41.2781 15.0113 41.2781 14.7272V12.4531C41.2781 12.1687 41.0426 11.9332 40.7582 11.9332Z" fill="white"/>
<path d="M35.6629 14.7276V12.4535C35.6629 12.1691 35.427 11.9336 35.143 11.9336C34.8586 11.9336 34.623 12.1695 34.623 12.4535V14.7276C34.623 15.012 34.8589 15.2476 35.143 15.2476C35.4274 15.2476 35.6629 15.0117 35.6629 14.7276Z" fill="white"/>
<path d="M24.5288 35.56C25.3121 34.8528 25.8112 33.8269 25.8112 32.6897C25.8112 30.5474 24.0711 28.8073 21.9288 28.8073C19.7865 28.8073 18.0463 30.5474 18.0463 32.6897C18.0463 33.8266 18.5455 34.8528 19.3287 35.56C17.3738 35.7959 15.8555 37.4598 15.8555 39.477V43.2276C15.8555 43.512 16.0913 43.7475 16.3754 43.7475C16.6598 43.7475 16.8953 43.5116 16.8953 43.2276V39.477C16.8953 37.8753 18.1988 36.5651 19.8072 36.5651H24.05C25.6583 36.5651 26.9618 37.8686 26.9618 39.477V43.2276C26.9618 43.512 27.1977 43.7475 27.4818 43.7475C27.7661 43.7475 28.0017 43.5116 28.0017 43.2276V39.477C28.002 37.4595 26.4837 35.7956 24.5288 35.56H24.5288ZM19.0933 32.683C19.0933 31.1162 20.369 29.8405 21.9359 29.8405C23.5027 29.8405 24.7784 31.1162 24.7784 32.683C24.7784 34.2498 23.5027 35.5256 21.9359 35.5256C20.362 35.5252 19.0933 34.2495 19.0933 32.683Z" fill="white"/>
<path d="M24.7358 40.4339C24.4514 40.4339 24.2158 40.6698 24.2158 40.9538V43.2279C24.2158 43.5123 24.4517 43.7479 24.7358 43.7479C25.0201 43.7479 25.2557 43.512 25.2557 43.2279L25.256 40.9538C25.256 40.6694 25.0201 40.4339 24.7358 40.4339Z" fill="white"/>
<path d="M19.1274 40.4339C18.843 40.4339 18.6074 40.6698 18.6074 40.9538V43.2279C18.6074 43.5123 18.8433 43.7479 19.1274 43.7479C19.4117 43.7479 19.6473 43.512 19.6473 43.2279V40.9538C19.6473 40.6694 19.4117 40.4339 19.1274 40.4339Z" fill="white"/>
<path d="M39.1147 16.3079C38.8374 16.3912 38.6848 16.6823 38.7681 16.9526C39.2673 18.5957 39.5169 20.301 39.5169 22.0204C39.5169 28.8977 35.4541 35.1649 29.1734 37.9871C28.9101 38.1048 28.792 38.41 28.9101 38.6733C29.0001 38.8673 29.1874 38.9784 29.3815 38.9784C29.4508 38.9784 29.527 38.9647 29.5963 38.9299C36.2517 35.9418 40.5501 29.2997 40.5501 22.0138C40.5501 20.1904 40.2868 18.388 39.7599 16.6408C39.6766 16.3845 39.3922 16.2249 39.1148 16.3082L39.1147 16.3079Z" fill="white"/>
<path d="M14.5592 37.8617C8.45122 34.9847 4.50666 28.7733 4.50666 22.0274C4.50666 20.308 4.75625 18.6027 5.25544 16.9596C5.33875 16.6823 5.18618 16.3912 4.90882 16.3149C4.63848 16.2316 4.34739 16.3842 4.26409 16.6615C3.73714 18.4017 3.4668 20.204 3.4668 22.0275C3.4668 29.1684 7.64733 35.7545 14.1085 38.8047C14.1778 38.8395 14.254 38.8532 14.3303 38.8532C14.5244 38.8532 14.7117 38.7421 14.8017 38.5551C14.9265 38.2988 14.8155 37.9866 14.5592 37.8618L14.5592 37.8617Z" fill="white"/>
<path d="M11.9794 7.5724C12.0764 7.5724 12.1804 7.54463 12.2704 7.48239C15.1545 5.54116 18.524 4.52209 22.0109 4.52209C25.4564 4.52209 28.7911 5.52752 31.6615 7.42691C31.8974 7.58649 32.2229 7.51692 32.3825 7.28137C32.5421 7.03879 32.4725 6.71994 32.237 6.56036C29.2007 4.54992 25.6648 3.48224 22.0112 3.48224C18.3161 3.48224 14.7455 4.5706 11.6881 6.62295C11.4522 6.78253 11.383 7.10809 11.5496 7.34396C11.6466 7.49621 11.8129 7.57249 11.9792 7.57249L11.9794 7.5724Z" fill="white"/>
<path d="M25.8524 29.7301C25.9565 29.8412 26.095 29.8964 26.2268 29.8964C26.3516 29.8964 26.4834 29.8479 26.5805 29.7509C27.9325 28.4751 28.6742 26.7491 28.6742 24.9048C28.6742 21.2234 25.6791 18.2283 21.9978 18.2283C18.3164 18.2283 15.3213 21.2234 15.3213 24.9048C15.3213 26.7075 16.0286 28.3988 17.3181 29.6608C17.5192 29.8619 17.8521 29.8619 18.0528 29.6538C18.2539 29.4457 18.2539 29.1198 18.0458 28.9191C16.9574 27.8515 16.3612 26.4231 16.3612 24.9048C16.3612 21.7989 18.8916 19.2686 21.9975 19.2686C25.1033 19.2686 27.6337 21.799 27.6337 24.9048C27.6337 26.4646 27.0027 27.9207 25.8658 28.9953C25.665 29.1893 25.658 29.5152 25.8524 29.73L25.8524 29.7301Z" fill="white"/>
<path d="M16.8331 33.5083C16.632 33.3072 16.2991 33.3072 16.0983 33.5083L14.6563 34.9503L11.9593 32.2533L13.4013 30.8113C13.5746 30.638 13.6024 30.3746 13.4776 30.1736C12.9091 29.2515 12.4932 28.2531 12.2436 27.2062C12.1881 26.9704 11.9803 26.8041 11.7374 26.8041H9.70621V22.9909H11.7374C11.98 22.9909 12.1881 22.8246 12.2436 22.5887C12.4932 21.5419 12.9024 20.5435 13.4776 19.6214C13.6024 19.4133 13.5746 19.15 13.4013 18.9837L11.9593 17.5417L14.6563 14.8447L16.0983 16.2867C16.2716 16.46 16.535 16.4878 16.743 16.363C17.6651 15.7945 18.6635 15.3786 19.7104 15.129C19.9462 15.0735 20.1125 14.8657 20.1125 14.6228V12.5916H23.9187V14.6228C23.9187 14.8654 24.085 15.0735 24.3208 15.129C25.3677 15.3716 26.3661 15.7878 27.2882 16.363C27.4892 16.4878 27.7596 16.46 27.9329 16.2867L29.3749 14.8447L32.0719 17.5417L30.6299 18.9837C30.4566 19.157 30.4288 19.4203 30.5536 19.6214C31.1221 20.5435 31.538 21.5419 31.7876 22.5887C31.8431 22.8246 32.0509 22.9909 32.2938 22.9909H34.325V26.8041H32.2938C32.0512 26.8041 31.8431 26.9704 31.7876 27.2062C31.538 28.2531 31.1288 29.2515 30.5536 30.1736C30.4288 30.3817 30.4566 30.645 30.6299 30.8113L32.0719 32.2533L29.3749 34.9503L27.9329 33.5083C27.7318 33.3072 27.3989 33.3072 27.1982 33.5083C26.9971 33.7094 26.9971 34.0423 27.1982 34.243L29.0076 36.0525C29.2087 36.2536 29.5416 36.2536 29.7423 36.0525L33.1741 32.6207C33.3752 32.4196 33.3752 32.0867 33.1741 31.886L31.6558 30.3677C32.1064 29.5704 32.4601 28.7246 32.7026 27.851H34.852C35.1363 27.851 35.3719 27.6151 35.3719 27.331V22.478C35.3719 22.1936 35.136 21.958 34.852 21.958H32.7026C32.46 21.0775 32.1134 20.2316 31.6558 19.4413L33.1741 17.916C33.3752 17.7149 33.3752 17.382 33.1741 17.1813L29.7423 13.7495C29.5483 13.5554 29.2016 13.5554 29.0076 13.7495L27.4893 15.2748C26.692 14.8242 25.8462 14.4705 24.9726 14.228V12.0787C24.9726 11.7943 24.7367 11.5587 24.4526 11.5587L19.5856 11.559C19.3012 11.559 19.0657 11.7949 19.0657 12.079V14.2283C18.1851 14.4709 17.3392 14.8175 16.549 15.2752L15.0307 13.7498C14.9336 13.6528 14.8018 13.5973 14.6633 13.5973C14.5248 13.5973 14.3929 13.6528 14.2959 13.7498L10.8638 17.1746C10.6628 17.3756 10.6628 17.7085 10.8638 17.9093L12.3821 19.4346C11.9315 20.2319 11.5778 21.0777 11.3353 21.9513H9.18595C8.90156 21.9513 8.66602 22.1872 8.66602 22.4713V27.3243C8.66602 27.6087 8.90188 27.8443 9.18595 27.8443H11.3353C11.5779 28.7248 11.9245 29.5707 12.3821 30.361L10.8638 31.8793C10.7668 31.9763 10.7113 32.1081 10.7113 32.2466C10.7113 32.3852 10.7668 32.517 10.8638 32.614L14.2956 36.0458C14.3996 36.1498 14.5315 36.1983 14.663 36.1983C14.7948 36.1983 14.9263 36.1498 15.0303 36.0458L16.8398 34.2363C17.0341 34.0423 17.0341 33.7094 16.8331 33.5083L16.8331 33.5083Z" fill="white"/>
</svg>
