<svg width="44" height="44" viewBox="0 0 44 44" fill="none" xmlns="http://www.w3.org/2000/svg">
<path d="M22.0006 25.4375C19.4295 25.4522 16.9579 24.4431 15.1317 22.6332C13.3053 20.8233 12.2743 18.3612 12.2657 15.7898C12.2571 13.2184 13.2718 10.7496 15.0862 8.92736C16.9004 7.10545 19.365 6.08009 21.9364 6.07758C24.5075 6.07512 26.9741 7.09594 28.7917 8.9144C30.6096 10.7329 31.6292 13.1999 31.6255 15.7713C31.6236 18.327 30.6105 20.7784 28.807 22.5898C27.0036 24.401 24.5565 25.4248 22.0005 25.4374L22.0006 25.4375ZM22.0006 7.4525C19.7957 7.43777 17.6755 8.30052 16.1071 9.85073C14.5391 11.4007 13.6518 13.5107 13.6407 15.7159C13.6296 17.9208 14.4961 20.0395 16.0487 21.6051C17.6015 23.1707 19.7131 24.0546 21.9179 24.062C24.1228 24.0694 26.2403 23.1995 27.8034 21.6444C29.3662 20.0889 30.2468 17.976 30.2505 15.7712C30.2523 13.5773 29.3856 11.4721 27.8396 9.91579C26.2933 8.35969 24.1941 7.47882 22.0005 7.46594L22.0006 7.4525Z" fill="white"/>
<path d="M25.2173 20.6248C25.1065 20.6251 24.9975 20.5969 24.9012 20.5423L21.9998 19.0159L19.1056 20.5423C18.8739 20.6672 18.5915 20.6488 18.3779 20.4953C18.1642 20.3419 18.0571 20.0797 18.1016 19.8204L18.6584 16.5824L16.3141 14.286C16.1251 14.104 16.0563 13.8302 16.1364 13.5804C16.2168 13.3305 16.4326 13.1482 16.6923 13.1105L19.9373 12.643L21.3811 9.69355C21.4959 9.4563 21.7362 9.3056 21.9998 9.3056C22.2635 9.3056 22.5038 9.4563 22.6186 9.69355L24.0623 12.643L27.3004 13.1105C27.5615 13.1461 27.7792 13.3275 27.8611 13.5776C27.943 13.8281 27.8749 14.1031 27.6855 14.286L25.3342 16.5824L25.891 19.8204C25.9413 20.0837 25.8339 20.352 25.616 20.5079C25.4984 20.5871 25.3591 20.6279 25.2173 20.6248L25.2173 20.6248ZM18.2668 14.2722L19.8757 15.8467H19.8754C20.0393 16.005 20.1139 16.234 20.0749 16.4587L19.6968 18.6793L21.6837 17.6274C21.8839 17.5222 22.1229 17.5222 22.3231 17.6274L24.3101 18.6793L23.9252 16.4587H23.9249C23.8859 16.234 23.9605 16.005 24.1244 15.8467L25.7333 14.2722L23.5127 13.949L23.5124 13.9493C23.2886 13.9155 23.0959 13.7744 22.9968 13.5712L21.9998 11.5565L21.0097 13.5709V13.5712C20.9093 13.7759 20.7135 13.9177 20.4873 13.9493L18.2668 14.2722Z" fill="white"/>
<path d="M12.8153 41.9376H12.7394C12.4721 41.9081 12.2465 41.7255 12.1621 41.4701L10.0171 34.987L3.3069 36.1144C3.04541 36.1515 2.78545 36.0349 2.63905 35.8151C2.49234 35.5951 2.48467 35.3106 2.61941 35.0831L10.1819 22.4811C10.3062 22.277 10.5275 22.152 10.7663 22.1511C11.0054 22.152 11.2267 22.277 11.3506 22.4811C11.4016 22.5529 11.459 22.6195 11.5225 22.6806C11.7564 22.9144 11.9418 22.9144 12.3886 22.9074H12.3889C13.0773 22.8178 13.7688 23.0483 14.2658 23.5329C14.7525 24.0396 14.9806 24.7412 14.8845 25.4373C14.8845 25.8842 14.8845 26.0766 15.1113 26.3105C15.3133 26.5597 15.634 26.6806 15.9501 26.6266C16.4559 26.5968 16.9617 26.684 17.4282 26.881C17.8898 27.0747 18.3033 27.3681 18.6381 27.7404C18.8176 28.0071 19.1297 28.1529 19.4496 28.1186C19.7221 28.1204 19.9784 27.9896 20.137 27.7681C20.3789 27.5194 20.7678 27.49 21.0443 27.6993C21.3227 27.9117 21.3967 28.2996 21.2162 28.5998L13.3996 41.6002C13.2768 41.8071 13.0552 41.9348 12.8152 41.9372L12.8153 41.9376ZM10.4845 33.5155C10.7819 33.5158 11.0456 33.707 11.1376 33.99L12.9939 39.6069L19.0783 29.4594V29.4591C18.5212 29.3986 18.0102 29.1224 17.6551 28.689C17.4461 28.4515 17.188 28.2615 16.8989 28.1323C16.6021 28.0138 16.2829 27.9623 15.964 27.981C15.2799 28.0556 14.601 27.8002 14.1351 27.2935C13.6505 26.7966 13.42 26.1051 13.5096 25.4166C13.5096 24.9765 13.5096 24.7703 13.2828 24.5367C13.056 24.3028 12.8636 24.2961 12.4167 24.3099L12.4164 24.3096C11.8848 24.3658 11.3493 24.2476 10.8904 23.9729L4.54452 34.5125L10.3677 33.5294L10.4845 33.5155Z" fill="white"/>
<path d="M24.5447 29.4799C23.8885 29.4726 23.2679 29.1788 22.8465 28.6755L22.7572 28.5862C22.4546 28.2701 22.3171 28.1393 21.9942 28.1393C21.671 28.1393 21.5267 28.2701 21.2174 28.6L21.121 28.7031C20.6839 29.193 20.0587 29.4732 19.4022 29.4732C18.7458 29.4732 18.1206 29.193 17.6835 28.7031C17.4742 28.4653 17.2164 28.2756 16.9272 28.1464C16.6305 28.0279 16.3113 27.9764 15.9921 27.9951C15.308 28.0694 14.629 27.8143 14.1635 27.3076C13.6789 26.8107 13.4484 26.1192 13.538 25.4307C13.538 24.9906 13.538 24.7844 13.3112 24.5508C13.0844 24.317 12.8919 24.3102 12.4451 24.324L12.4448 24.3237C11.753 24.4127 11.0587 24.1795 10.5609 23.6911C10.4203 23.5546 10.2957 23.4023 10.1898 23.2375C9.92463 22.8309 9.80586 22.3459 9.85281 21.8625C9.87184 21.5458 9.81997 21.2287 9.7015 20.9344C9.58057 20.6386 9.39212 20.3749 9.1515 20.1644C8.62391 19.7218 8.33388 19.0579 8.36793 18.3701C8.37806 17.6743 8.70125 17.02 9.24785 16.5894C9.56397 16.2868 9.70854 16.1425 9.70854 15.8126C9.70854 15.4826 9.56429 15.3313 9.24785 15.0287C8.70123 14.5981 8.37807 13.944 8.36793 13.2483C8.33509 12.5626 8.62513 11.9012 9.1515 11.4608C9.3912 11.2521 9.57965 10.9909 9.7015 10.6975C9.82304 10.3991 9.8746 10.0772 9.85281 9.75587C9.7902 9.07297 10.0437 8.39925 10.5403 7.92696C11.04 7.44141 11.7327 7.20877 12.4242 7.2944C12.8711 7.2944 13.0635 7.2944 13.2974 7.07434C13.5313 6.85428 13.5313 6.63421 13.5242 6.19442C13.4355 5.50415 13.6657 4.81085 14.1497 4.31083C14.6153 3.8081 15.2899 3.55335 15.9716 3.62333C16.2911 3.63407 16.6091 3.57054 16.8997 3.43764C17.1946 3.31487 17.4561 3.12397 17.663 2.88089C18.0985 2.3401 18.7636 2.03688 19.4573 2.06265C20.1527 2.07247 20.8059 2.39903 21.2309 2.94964C21.5403 3.27283 21.6778 3.41033 22.0077 3.41033C22.3377 3.41033 22.4684 3.27283 22.7778 2.94964C23.2044 2.40056 23.8566 2.07459 24.5515 2.06265C25.2442 2.02858 25.9123 2.32445 26.3528 2.85999C26.5578 3.10062 26.8172 3.28906 27.109 3.40999C27.4157 3.53797 27.7465 3.5966 28.0786 3.58186C28.7345 3.54902 29.3729 3.79947 29.8317 4.26936C30.3516 4.75798 30.6073 5.46577 30.5192 6.17378C30.5192 6.6274 30.5192 6.86128 30.746 7.06077C30.9728 7.26027 31.1723 7.30814 31.6192 7.29464V7.29434C32.3085 7.20564 33.0006 7.43889 33.496 7.9269C33.9932 8.39618 34.247 9.06799 34.1835 9.74881C34.1583 10.0674 34.2078 10.3875 34.3278 10.684C34.4508 10.9804 34.6417 11.2441 34.8848 11.4537C35.409 11.8991 35.6982 12.5611 35.6684 13.2483C35.6567 13.9453 35.3308 14.5996 34.7817 15.0287C34.4656 15.3313 34.3281 15.4756 34.3281 15.8126C34.3281 16.1496 34.4656 16.2938 34.7817 16.5965C35.3326 17.0182 35.6595 17.6694 35.6684 18.3631C35.6994 19.0506 35.4096 19.7132 34.8848 20.1576C34.6442 20.3682 34.4557 20.6318 34.3348 20.9277C34.2102 21.2226 34.1559 21.5428 34.1764 21.8625C34.2077 22.3475 34.0822 22.8294 33.8192 23.2375C33.7142 23.3892 33.597 23.5319 33.4684 23.6639C32.9684 24.1479 32.275 24.3781 31.5848 24.2894C31.1379 24.2894 30.9455 24.2894 30.7116 24.5162C30.4778 24.743 30.4778 24.9492 30.4916 25.3893C30.5781 26.0796 30.3482 26.772 29.8661 27.2732C29.3965 27.7744 28.7207 28.0286 28.0372 27.9607C27.7186 27.9356 27.3985 27.985 27.1023 28.105C26.8101 28.2324 26.5496 28.4226 26.339 28.662C25.9035 29.2025 25.2384 29.5057 24.5448 29.48L24.5447 29.4799ZM21.9941 26.7299C22.6789 26.7401 23.3228 27.0583 23.7472 27.5963L23.8298 27.6789C24.1115 27.9607 24.249 28.0708 24.5173 28.0708L24.517 28.0705C24.8371 28.1064 25.1502 27.9604 25.3285 27.6924C25.6682 27.3198 26.0859 27.0264 26.5521 26.833C27.0187 26.636 27.5245 26.5488 28.0302 26.5786C28.3411 26.6498 28.6662 26.5442 28.8758 26.3036C29.1097 26.0697 29.1097 25.8705 29.1026 25.4304V25.4307C29.0016 24.7358 29.2349 24.0343 29.7321 23.5385C30.2293 23.0429 30.9313 22.8115 31.6258 22.9143C32.0795 22.9143 32.2722 22.9143 32.499 22.6875C32.5653 22.6224 32.6252 22.5509 32.6776 22.4745C32.7976 22.2842 32.8443 22.0567 32.8084 21.8348C32.7887 21.3343 32.8756 20.8352 33.0628 20.3705C33.2559 19.9046 33.5493 19.4866 33.9222 19.1468C34.1865 18.9624 34.331 18.6496 34.3004 18.3286C34.3004 17.9987 34.1696 17.8612 33.8397 17.5518C33.2983 17.1341 32.9729 16.4957 32.9527 15.8125C32.9628 15.1167 33.2863 14.4626 33.8326 14.0317C34.1487 13.7291 34.2933 13.5848 34.2933 13.2478V13.2481C34.351 12.9078 34.2027 12.5659 33.9152 12.375C33.5416 12.0331 33.2482 11.6129 33.0557 11.1442C32.8633 10.6789 32.7786 10.1759 32.8084 9.67315C32.8612 9.35856 32.7433 9.03936 32.499 8.83432C32.2584 8.60045 32.0727 8.5937 31.6258 8.60751C30.9365 8.69406 30.2453 8.46111 29.749 7.97495C29.2638 7.46976 29.0314 6.77273 29.1164 6.07761C29.1164 5.62398 29.1164 5.43123 28.8896 5.21151V5.21121C28.6745 4.98777 28.3642 4.8828 28.0576 4.92946C27.5514 4.93928 27.0484 4.84567 26.5795 4.65446C26.1145 4.46018 25.6986 4.164 25.3629 3.78805C25.176 3.533 24.8654 3.39888 24.5514 3.43755C24.2214 3.43755 24.0839 3.5683 23.7746 3.89824C23.355 4.45898 22.701 4.796 22.0009 4.81258C21.3063 4.79876 20.6551 4.47312 20.2272 3.92558C19.9384 3.56833 19.7871 3.43758 19.4572 3.43758C19.138 3.40628 18.8274 3.55114 18.646 3.81571C18.3102 4.19169 17.8944 4.48756 17.4291 4.6818C16.961 4.87454 16.4565 4.96141 15.951 4.93624C15.6416 4.8813 15.3264 4.9967 15.126 5.23886C14.8992 5.47274 14.8921 5.66518 14.9059 6.11203C14.987 6.80352 14.7577 7.49559 14.2804 8.00261C13.7802 8.48663 13.0871 8.71681 12.3965 8.62811C11.9497 8.62811 11.7572 8.62811 11.5234 8.85492C11.2791 9.06301 11.1618 9.38405 11.214 9.70051C11.2367 10.206 11.1499 10.71 10.9599 11.1786C10.7591 11.6362 10.4611 12.0444 10.0867 12.375C9.8249 12.5549 9.68218 12.8636 9.71533 13.1794C9.71533 13.5093 9.85283 13.6607 10.169 13.9633L10.1693 13.963C10.7263 14.3841 11.0538 15.0421 11.0538 15.7403C11.0538 16.4386 10.7263 17.0966 10.1693 17.5174C9.85313 17.82 9.71563 17.971 9.71563 18.3013H9.71533C9.68156 18.6211 9.82367 18.9341 10.0867 19.1192C10.8374 19.8064 11.2453 20.7906 11.2005 21.8075C11.1622 22.019 11.2039 22.2369 11.3172 22.4192C11.3718 22.5048 11.4362 22.5834 11.5099 22.6531C11.7438 22.887 11.9292 22.887 12.376 22.8799C13.0644 22.7903 13.7559 23.0208 14.2528 23.5057C14.7528 24.0161 14.9867 24.7303 14.8854 25.4375C14.8854 25.8843 14.8854 26.0768 15.1122 26.3106C15.3142 26.5598 15.6349 26.6808 15.951 26.6267C16.4568 26.597 16.9626 26.6841 17.4291 26.8812C17.8907 27.0748 18.3042 27.3683 18.639 27.7406C18.8185 28.0073 19.1306 28.1531 19.4504 28.1187C19.723 28.1206 19.9793 27.9898 20.1379 27.7682L20.2205 27.6718H20.2202C20.6428 27.1117 21.2993 26.7771 22.0009 26.7643L21.9941 26.7299Z" fill="white"/>
<path d="M31.1647 41.9375C30.922 41.9375 30.6973 41.8095 30.5736 41.6005L22.7429 28.538C22.5587 28.2394 22.6293 27.8499 22.9065 27.6344C23.1836 27.4193 23.5783 27.4472 23.8223 27.6995C24.1111 27.9883 24.2486 28.0982 24.5442 28.0982C24.864 28.1341 25.177 27.988 25.3553 27.7201C25.6954 27.3471 26.1131 27.0537 26.579 26.8606C27.0458 26.6636 27.5516 26.5764 28.0571 26.6062C28.3643 26.6571 28.6752 26.5421 28.8753 26.3036C29.1092 26.0697 29.1092 25.8705 29.1021 25.4304V25.4307C29.0012 24.7358 29.2344 24.0343 29.7316 23.5386C30.2288 23.0429 30.9308 22.8115 31.6254 22.9143C32.079 22.9143 32.2717 22.9143 32.4985 22.6875C32.5648 22.6224 32.6247 22.5509 32.6771 22.4745C32.8033 22.2753 33.0224 22.1544 33.2581 22.1544C33.4938 22.1544 33.713 22.2753 33.8391 22.4745L41.3878 35.0624C41.5225 35.2898 41.5149 35.5743 41.3685 35.7941C41.2218 36.0142 40.9621 36.1305 40.7003 36.0937L33.9905 34.9592L31.8386 41.4423H31.8383C31.7539 41.6977 31.5283 41.8803 31.261 41.9098L31.1647 41.9375ZM24.9017 29.4659L30.9861 39.6134L32.8491 33.9897V33.99C32.9566 33.6668 33.284 33.471 33.6192 33.5293L39.4353 34.5124L33.1035 23.9595C32.6468 24.2332 32.1131 24.3489 31.5843 24.2894C31.1374 24.2894 30.945 24.2894 30.7111 24.5162C30.4772 24.743 30.4772 24.9493 30.4911 25.3894C30.5776 26.0796 30.3477 26.7721 29.8656 27.2733C29.396 27.7745 28.7201 28.0286 28.0367 27.9608C27.7181 27.9356 27.398 27.985 27.1018 28.105C26.8096 28.2324 26.549 28.4227 26.3385 28.6621C25.9834 29.1077 25.4675 29.3965 24.9018 29.4662L24.9017 29.4659Z" fill="white"/>
</svg>
