<svg width="175" height="52" viewBox="0 0 175 52" fill="none" xmlns="http://www.w3.org/2000/svg">
<path d="M8.358 39.18H4.928V48H3.668V39.18H0.238V38.06H8.358V39.18ZM11.269 48.14C10.7183 48.14 10.2143 48.042 9.75702 47.846C9.30902 47.6407 8.91702 47.3653 8.58102 47.02C8.25435 46.6653 7.99768 46.2593 7.81102 45.802C7.63368 45.3447 7.54502 44.8593 7.54502 44.346C7.54502 43.6553 7.70368 43.0253 8.02102 42.456C8.33835 41.8867 8.77702 41.4293 9.33702 41.084C9.90635 40.7387 10.555 40.566 11.283 40.566C12.0203 40.566 12.6597 40.7433 13.201 41.098C13.7517 41.4433 14.1763 41.9007 14.475 42.47C14.783 43.03 14.937 43.6367 14.937 44.29C14.937 44.3833 14.9323 44.4767 14.923 44.57C14.923 44.654 14.9183 44.7193 14.909 44.766H8.84702C8.88435 45.242 9.01502 45.6667 9.23902 46.04C9.47235 46.404 9.77102 46.6933 10.135 46.908C10.499 47.1133 10.891 47.216 11.311 47.216C11.759 47.216 12.179 47.104 12.571 46.88C12.9723 46.656 13.2477 46.362 13.397 45.998L14.461 46.292C14.3023 46.6467 14.0643 46.964 13.747 47.244C13.439 47.524 13.0703 47.7433 12.641 47.902C12.221 48.0607 11.7637 48.14 11.269 48.14ZM8.80502 43.912H13.789C13.7517 43.436 13.6163 43.016 13.383 42.652C13.1497 42.288 12.851 42.0033 12.487 41.798C12.123 41.5927 11.7217 41.49 11.283 41.49C10.8537 41.49 10.457 41.5927 10.093 41.798C9.72902 42.0033 9.43035 42.288 9.19702 42.652C8.97302 43.016 8.84235 43.436 8.80502 43.912ZM16.2925 48V40.692H22.3545V48H21.1225V41.784H17.5245V48H16.2925ZM23.7016 48.056V46.95C23.9442 46.95 24.1589 46.8893 24.3456 46.768C24.5416 46.6373 24.7142 46.4227 24.8636 46.124C25.0129 45.816 25.1296 45.396 25.2136 44.864C25.3069 44.3227 25.3676 43.6367 25.3956 42.806L25.4796 40.692H30.4496V48H29.2176V41.784H26.5716L26.5436 42.918C26.5062 43.9167 26.4222 44.7473 26.2916 45.41C26.1609 46.0727 25.9789 46.5953 25.7456 46.978C25.5122 47.3607 25.2229 47.636 24.8776 47.804C24.5416 47.972 24.1496 48.056 23.7016 48.056ZM35.6313 48.14C35.0806 48.14 34.5813 48.042 34.1333 47.846C33.6853 47.6407 33.298 47.3653 32.9713 47.02C32.6446 46.6653 32.3926 46.2593 32.2153 45.802C32.038 45.3447 31.9493 44.864 31.9493 44.36C31.9493 43.8467 32.038 43.3613 32.2153 42.904C32.3926 42.4467 32.6446 42.0453 32.9713 41.7C33.298 41.3453 33.6853 41.07 34.1333 40.874C34.5906 40.6687 35.09 40.566 35.6313 40.566C36.182 40.566 36.6813 40.6687 37.1293 40.874C37.5773 41.07 37.9646 41.3453 38.2913 41.7C38.6273 42.0453 38.884 42.4467 39.0613 42.904C39.2386 43.3613 39.3273 43.8467 39.3273 44.36C39.3273 44.864 39.2386 45.3447 39.0613 45.802C38.884 46.2593 38.632 46.6653 38.3053 47.02C37.9786 47.3653 37.5866 47.6407 37.1293 47.846C36.6813 48.042 36.182 48.14 35.6313 48.14ZM33.2093 44.374C33.2093 44.878 33.3166 45.3353 33.5313 45.746C33.7553 46.1567 34.0493 46.4833 34.4133 46.726C34.7773 46.9593 35.1833 47.076 35.6313 47.076C36.0793 47.076 36.4853 46.9547 36.8493 46.712C37.2226 46.4693 37.5166 46.1427 37.7313 45.732C37.9553 45.312 38.0673 44.85 38.0673 44.346C38.0673 43.842 37.9553 43.3847 37.7313 42.974C37.5166 42.5633 37.2226 42.2367 36.8493 41.994C36.4853 41.7513 36.0793 41.63 35.6313 41.63C35.1833 41.63 34.7773 41.756 34.4133 42.008C34.0493 42.2507 33.7553 42.5773 33.5313 42.988C33.3166 43.3987 33.2093 43.8607 33.2093 44.374ZM43.5492 49.722V46.908H43.7032C43.9085 46.908 44.0952 46.8473 44.2632 46.726C44.4405 46.6047 44.5945 46.3947 44.7252 46.096C44.8652 45.788 44.9772 45.368 45.0612 44.836C45.1452 44.304 45.2012 43.6273 45.2292 42.806L45.2992 40.692H50.2692V46.908H51.2632V49.722H50.1712V48H44.6412V49.722H43.5492ZM45.4252 46.908H49.0372V41.784H46.3912L46.3492 42.918C46.3212 43.7113 46.2652 44.3787 46.1812 44.92C46.1065 45.452 46.0039 45.8767 45.8732 46.194C45.7519 46.5113 45.6025 46.7493 45.4252 46.908ZM55.8247 48.14C55.274 48.14 54.7747 48.042 54.3267 47.846C53.8787 47.6407 53.4913 47.3653 53.1647 47.02C52.838 46.6653 52.586 46.2593 52.4087 45.802C52.2313 45.3447 52.1427 44.864 52.1427 44.36C52.1427 43.8467 52.2313 43.3613 52.4087 42.904C52.586 42.4467 52.838 42.0453 53.1647 41.7C53.4913 41.3453 53.8787 41.07 54.3267 40.874C54.784 40.6687 55.2833 40.566 55.8247 40.566C56.3753 40.566 56.8747 40.6687 57.3227 40.874C57.7707 41.07 58.158 41.3453 58.4847 41.7C58.8207 42.0453 59.0773 42.4467 59.2547 42.904C59.432 43.3613 59.5207 43.8467 59.5207 44.36C59.5207 44.864 59.432 45.3447 59.2547 45.802C59.0773 46.2593 58.8253 46.6653 58.4987 47.02C58.172 47.3653 57.78 47.6407 57.3227 47.846C56.8747 48.042 56.3753 48.14 55.8247 48.14ZM53.4027 44.374C53.4027 44.878 53.51 45.3353 53.7247 45.746C53.9487 46.1567 54.2427 46.4833 54.6067 46.726C54.9707 46.9593 55.3767 47.076 55.8247 47.076C56.2727 47.076 56.6787 46.9547 57.0427 46.712C57.416 46.4693 57.71 46.1427 57.9247 45.732C58.1487 45.312 58.2607 44.85 58.2607 44.346C58.2607 43.842 58.1487 43.3847 57.9247 42.974C57.71 42.5633 57.416 42.2367 57.0427 41.994C56.6787 41.7513 56.2727 41.63 55.8247 41.63C55.3767 41.63 54.9707 41.756 54.6067 42.008C54.2427 42.2507 53.9487 42.5773 53.7247 42.988C53.51 43.3987 53.4027 43.8607 53.4027 44.374ZM60.9995 48V40.692H62.2735L64.9895 45.48L67.7195 40.692H68.9655V48H67.7895V42.47L65.3815 46.698H64.5975L62.1755 42.47V48H60.9995ZM70.379 45.886C70.379 45.4193 70.5097 45.018 70.771 44.682C71.0417 44.3367 71.4103 44.0707 71.877 43.884C72.3437 43.6973 72.885 43.604 73.501 43.604C73.8277 43.604 74.173 43.632 74.537 43.688C74.901 43.7347 75.223 43.8093 75.503 43.912V43.38C75.503 42.82 75.335 42.3813 74.999 42.064C74.663 41.7373 74.187 41.574 73.571 41.574C73.1697 41.574 72.7823 41.6487 72.409 41.798C72.045 41.938 71.6577 42.1433 71.247 42.414L70.799 41.546C71.275 41.2193 71.751 40.9767 72.227 40.818C72.703 40.65 73.1977 40.566 73.711 40.566C74.6443 40.566 75.3817 40.8273 75.923 41.35C76.4643 41.8633 76.735 42.582 76.735 43.506V46.6C76.735 46.7493 76.763 46.8613 76.819 46.936C76.8843 47.0013 76.987 47.0387 77.127 47.048V48C77.0057 48.0187 76.8983 48.0327 76.805 48.042C76.721 48.0513 76.651 48.056 76.595 48.056C76.3057 48.056 76.0863 47.9767 75.937 47.818C75.797 47.6593 75.7177 47.4913 75.699 47.314L75.671 46.852C75.3537 47.2627 74.9383 47.58 74.425 47.804C73.9117 48.028 73.403 48.14 72.899 48.14C72.4137 48.14 71.9797 48.042 71.597 47.846C71.2143 47.6407 70.9157 47.37 70.701 47.034C70.4863 46.6887 70.379 46.306 70.379 45.886ZM75.139 46.404C75.251 46.2733 75.3397 46.1427 75.405 46.012C75.4703 45.872 75.503 45.7553 75.503 45.662V44.752C75.2137 44.64 74.9103 44.556 74.593 44.5C74.2757 44.4347 73.963 44.402 73.655 44.402C73.0297 44.402 72.521 44.528 72.129 44.78C71.7463 45.0227 71.555 45.3587 71.555 45.788C71.555 46.0213 71.6157 46.25 71.737 46.474C71.8677 46.6887 72.0543 46.866 72.297 47.006C72.549 47.146 72.857 47.216 73.221 47.216C73.6037 47.216 73.9677 47.1413 74.313 46.992C74.6583 46.8333 74.9337 46.6373 75.139 46.404ZM78.6909 48V40.692H79.9229V46.922H82.8069V40.692H84.0529V46.922H86.9229V40.692H88.1549V48H78.6909ZM90.1343 48V40.692H91.3663V43.716H95.1743V40.692H96.4063V48H95.1743V44.808H91.3663V48H90.1343ZM101.626 48.14C101.076 48.14 100.572 48.042 100.114 47.846C99.6664 47.6407 99.2744 47.3653 98.9384 47.02C98.6118 46.6653 98.3551 46.2593 98.1684 45.802C97.9911 45.3447 97.9024 44.8593 97.9024 44.346C97.9024 43.6553 98.0611 43.0253 98.3784 42.456C98.6958 41.8867 99.1344 41.4293 99.6944 41.084C100.264 40.7387 100.912 40.566 101.64 40.566C102.378 40.566 103.017 40.7433 103.558 41.098C104.109 41.4433 104.534 41.9007 104.832 42.47C105.14 43.03 105.294 43.6367 105.294 44.29C105.294 44.3833 105.29 44.4767 105.28 44.57C105.28 44.654 105.276 44.7193 105.266 44.766H99.2044C99.2418 45.242 99.3724 45.6667 99.5964 46.04C99.8298 46.404 100.128 46.6933 100.492 46.908C100.856 47.1133 101.248 47.216 101.668 47.216C102.116 47.216 102.536 47.104 102.928 46.88C103.33 46.656 103.605 46.362 103.754 45.998L104.818 46.292C104.66 46.6467 104.422 46.964 104.104 47.244C103.796 47.524 103.428 47.7433 102.998 47.902C102.578 48.0607 102.121 48.14 101.626 48.14ZM99.1624 43.912H104.146C104.109 43.436 103.974 43.016 103.74 42.652C103.507 42.288 103.208 42.0033 102.844 41.798C102.48 41.5927 102.079 41.49 101.64 41.49C101.211 41.49 100.814 41.5927 100.45 41.798C100.086 42.0033 99.7878 42.288 99.5544 42.652C99.3304 43.016 99.1998 43.436 99.1624 43.912ZM106.65 48V40.692H111.158V41.784H107.882V48H106.65ZM115.612 48.14C115.061 48.14 114.562 48.042 114.114 47.846C113.666 47.6407 113.278 47.3653 112.952 47.02C112.625 46.6653 112.373 46.2593 112.196 45.802C112.018 45.3447 111.93 44.864 111.93 44.36C111.93 43.8467 112.018 43.3613 112.196 42.904C112.373 42.4467 112.625 42.0453 112.952 41.7C113.278 41.3453 113.666 41.07 114.114 40.874C114.571 40.6687 115.07 40.566 115.612 40.566C116.162 40.566 116.662 40.6687 117.11 40.874C117.558 41.07 117.945 41.3453 118.272 41.7C118.608 42.0453 118.864 42.4467 119.042 42.904C119.219 43.3613 119.308 43.8467 119.308 44.36C119.308 44.864 119.219 45.3447 119.042 45.802C118.864 46.2593 118.612 46.6653 118.286 47.02C117.959 47.3653 117.567 47.6407 117.11 47.846C116.662 48.042 116.162 48.14 115.612 48.14ZM113.19 44.374C113.19 44.878 113.297 45.3353 113.512 45.746C113.736 46.1567 114.03 46.4833 114.394 46.726C114.758 46.9593 115.164 47.076 115.612 47.076C116.06 47.076 116.466 46.9547 116.83 46.712C117.203 46.4693 117.497 46.1427 117.712 45.732C117.936 45.312 118.048 44.85 118.048 44.346C118.048 43.842 117.936 43.3847 117.712 42.974C117.497 42.5633 117.203 42.2367 116.83 41.994C116.466 41.7513 116.06 41.63 115.612 41.63C115.164 41.63 114.758 41.756 114.394 42.008C114.03 42.2507 113.736 42.5773 113.512 42.988C113.297 43.3987 113.19 43.8607 113.19 44.374ZM123.894 42.96C123.894 42.3533 123.996 41.7607 124.202 41.182C124.416 40.594 124.724 40.062 125.126 39.586C125.536 39.1007 126.036 38.718 126.624 38.438C127.212 38.1487 127.879 38.004 128.626 38.004C129.512 38.004 130.273 38.2093 130.908 38.62C131.542 39.0213 132.014 39.5393 132.322 40.174L131.328 40.818C131.132 40.398 130.88 40.0667 130.572 39.824C130.273 39.572 129.946 39.3947 129.592 39.292C129.246 39.1893 128.906 39.138 128.57 39.138C128.019 39.138 127.529 39.25 127.1 39.474C126.68 39.698 126.325 39.9967 126.036 40.37C125.746 40.7433 125.527 41.1633 125.378 41.63C125.238 42.0873 125.168 42.5493 125.168 43.016C125.168 43.5293 125.252 44.024 125.42 44.5C125.597 44.976 125.84 45.396 126.148 45.76C126.456 46.124 126.82 46.4133 127.24 46.628C127.66 46.8427 128.117 46.95 128.612 46.95C128.957 46.95 129.312 46.8893 129.676 46.768C130.04 46.6467 130.38 46.46 130.698 46.208C131.015 45.9467 131.267 45.6107 131.454 45.2L132.504 45.774C132.298 46.2687 131.981 46.6887 131.552 47.034C131.122 47.3793 130.642 47.6407 130.11 47.818C129.587 47.9953 129.069 48.084 128.556 48.084C127.874 48.084 127.249 47.9393 126.68 47.65C126.11 47.3513 125.616 46.9593 125.196 46.474C124.785 45.9793 124.463 45.4287 124.23 44.822C124.006 44.206 123.894 43.5853 123.894 42.96ZM137.077 48.14C136.526 48.14 136.027 48.042 135.579 47.846C135.131 47.6407 134.743 47.3653 134.417 47.02C134.09 46.6653 133.838 46.2593 133.661 45.802C133.483 45.3447 133.395 44.864 133.395 44.36C133.395 43.8467 133.483 43.3613 133.661 42.904C133.838 42.4467 134.09 42.0453 134.417 41.7C134.743 41.3453 135.131 41.07 135.579 40.874C136.036 40.6687 136.535 40.566 137.077 40.566C137.627 40.566 138.127 40.6687 138.575 40.874C139.023 41.07 139.41 41.3453 139.737 41.7C140.073 42.0453 140.329 42.4467 140.507 42.904C140.684 43.3613 140.773 43.8467 140.773 44.36C140.773 44.864 140.684 45.3447 140.507 45.802C140.329 46.2593 140.077 46.6653 139.751 47.02C139.424 47.3653 139.032 47.6407 138.575 47.846C138.127 48.042 137.627 48.14 137.077 48.14ZM134.655 44.374C134.655 44.878 134.762 45.3353 134.977 45.746C135.201 46.1567 135.495 46.4833 135.859 46.726C136.223 46.9593 136.629 47.076 137.077 47.076C137.525 47.076 137.931 46.9547 138.295 46.712C138.668 46.4693 138.962 46.1427 139.177 45.732C139.401 45.312 139.513 44.85 139.513 44.346C139.513 43.842 139.401 43.3847 139.177 42.974C138.962 42.5633 138.668 42.2367 138.295 41.994C137.931 41.7513 137.525 41.63 137.077 41.63C136.629 41.63 136.223 41.756 135.859 42.008C135.495 42.2507 135.201 42.5773 134.977 42.988C134.762 43.3987 134.655 43.8607 134.655 44.374ZM141.621 48.056V46.95C141.864 46.95 142.079 46.8893 142.265 46.768C142.461 46.6373 142.634 46.4227 142.783 46.124C142.933 45.816 143.049 45.396 143.133 44.864C143.227 44.3227 143.287 43.6367 143.315 42.806L143.399 40.692H148.369V48H147.137V41.784H144.491L144.463 42.918C144.426 43.9167 144.342 44.7473 144.211 45.41C144.081 46.0727 143.899 46.5953 143.665 46.978C143.432 47.3607 143.143 47.636 142.797 47.804C142.461 47.972 142.069 48.056 141.621 48.056ZM150.345 48V40.692H151.577V43.716H155.385V40.692H156.617V48H155.385V44.808H151.577V48H150.345ZM164.357 49.722V48H158.589V40.692H159.821V46.922H163.209V40.692H164.441V46.922H165.449V49.722H164.357ZM166.246 45.886C166.246 45.4193 166.377 45.018 166.638 44.682C166.909 44.3367 167.278 44.0707 167.744 43.884C168.211 43.6973 168.752 43.604 169.368 43.604C169.695 43.604 170.04 43.632 170.404 43.688C170.768 43.7347 171.09 43.8093 171.37 43.912V43.38C171.37 42.82 171.202 42.3813 170.866 42.064C170.53 41.7373 170.054 41.574 169.438 41.574C169.037 41.574 168.65 41.6487 168.276 41.798C167.912 41.938 167.525 42.1433 167.114 42.414L166.666 41.546C167.142 41.2193 167.618 40.9767 168.094 40.818C168.57 40.65 169.065 40.566 169.578 40.566C170.512 40.566 171.249 40.8273 171.79 41.35C172.332 41.8633 172.602 42.582 172.602 43.506V46.6C172.602 46.7493 172.63 46.8613 172.686 46.936C172.752 47.0013 172.854 47.0387 172.994 47.048V48C172.873 48.0187 172.766 48.0327 172.672 48.042C172.588 48.0513 172.518 48.056 172.462 48.056C172.173 48.056 171.954 47.9767 171.804 47.818C171.664 47.6593 171.585 47.4913 171.566 47.314L171.538 46.852C171.221 47.2627 170.806 47.58 170.292 47.804C169.779 48.028 169.27 48.14 168.766 48.14C168.281 48.14 167.847 48.042 167.464 47.846C167.082 47.6407 166.783 47.37 166.568 47.034C166.354 46.6887 166.246 46.306 166.246 45.886ZM171.006 46.404C171.118 46.2733 171.207 46.1427 171.272 46.012C171.338 45.872 171.37 45.7553 171.37 45.662V44.752C171.081 44.64 170.778 44.556 170.46 44.5C170.143 44.4347 169.83 44.402 169.522 44.402C168.897 44.402 168.388 44.528 167.996 44.78C167.614 45.0227 167.422 45.3587 167.422 45.788C167.422 46.0213 167.483 46.25 167.604 46.474C167.735 46.6887 167.922 46.866 168.164 47.006C168.416 47.146 168.724 47.216 169.088 47.216C169.471 47.216 169.835 47.1413 170.18 46.992C170.526 46.8333 170.801 46.6373 171.006 46.404Z" fill="#414141"/>
<path d="M59.82 12.94C59.76 12.84 59.55 12.69 59.19 12.49C58.83 12.27 58.38 12.04 57.84 11.8C57.3 11.56 56.71 11.35 56.07 11.17C55.43 10.99 54.79 10.9 54.15 10.9C53.31 10.9 52.66 11.05 52.2 11.35C51.74 11.63 51.51 12.07 51.51 12.67C51.51 13.15 51.68 13.53 52.02 13.81C52.38 14.09 52.89 14.34 53.55 14.56C54.21 14.76 55.02 15 55.98 15.28C57.34 15.64 58.52 16.08 59.52 16.6C60.52 17.1 61.28 17.75 61.8 18.55C62.34 19.35 62.61 20.41 62.61 21.73C62.61 22.93 62.39 23.95 61.95 24.79C61.51 25.61 60.91 26.28 60.15 26.8C59.41 27.3 58.56 27.67 57.6 27.91C56.64 28.13 55.65 28.24 54.63 28.24C53.59 28.24 52.52 28.14 51.42 27.94C50.34 27.72 49.3 27.42 48.3 27.04C47.3 26.64 46.38 26.16 45.54 25.6L47.7 21.31C47.78 21.41 48.04 21.6 48.48 21.88C48.92 22.14 49.46 22.42 50.1 22.72C50.76 23 51.49 23.25 52.29 23.47C53.09 23.69 53.9 23.8 54.72 23.8C55.6 23.8 56.25 23.66 56.67 23.38C57.11 23.1 57.33 22.71 57.33 22.21C57.33 21.67 57.1 21.25 56.64 20.95C56.2 20.65 55.59 20.38 54.81 20.14C54.05 19.9 53.17 19.63 52.17 19.33C50.87 18.93 49.79 18.48 48.93 17.98C48.09 17.48 47.46 16.87 47.04 16.15C46.64 15.43 46.44 14.53 46.44 13.45C46.44 11.95 46.79 10.69 47.49 9.67C48.21 8.63 49.17 7.85 50.37 7.33C51.57 6.79 52.88 6.52 54.3 6.52C55.3 6.52 56.26 6.64 57.18 6.88C58.12 7.12 58.99 7.42 59.79 7.78C60.61 8.14 61.34 8.5 61.98 8.86L59.82 12.94ZM64.8398 22.33V12.25H69.6398V21.28C69.6398 22.24 69.8298 22.98 70.2098 23.5C70.5898 24 71.1298 24.25 71.8298 24.25C72.2698 24.25 72.6898 24.18 73.0898 24.04C73.4898 23.88 73.8798 23.63 74.2598 23.29C74.6398 22.95 74.9798 22.51 75.2798 21.97V12.25H80.0798V22.66C80.0798 23.14 80.1498 23.48 80.2898 23.68C80.4498 23.86 80.7198 23.97 81.0998 24.01V28C80.6598 28.08 80.2698 28.14 79.9298 28.18C79.6098 28.22 79.3198 28.24 79.0598 28.24C78.2198 28.24 77.5498 28.07 77.0498 27.73C76.5498 27.37 76.2398 26.87 76.1198 26.23L76.0298 25.27C75.3098 26.31 74.4098 27.08 73.3298 27.58C72.2698 28.06 71.0798 28.3 69.7598 28.3C68.1598 28.3 66.9398 27.79 66.0998 26.77C65.2598 25.75 64.8398 24.27 64.8398 22.33ZM98.9784 28H94.1784V19.15C94.1784 18.11 93.9784 17.36 93.5784 16.9C93.1984 16.42 92.6884 16.18 92.0484 16.18C91.6084 16.18 91.1584 16.3 90.6984 16.54C90.2384 16.78 89.8184 17.11 89.4384 17.53C89.0784 17.95 88.7984 18.43 88.5984 18.97V28H83.7984V12.25H88.1184V14.89C88.5184 14.27 89.0184 13.74 89.6184 13.3C90.2184 12.86 90.9084 12.53 91.6884 12.31C92.4684 12.07 93.3184 11.95 94.2384 11.95C95.2584 11.95 96.0784 12.14 96.6984 12.52C97.3384 12.88 97.8184 13.36 98.1384 13.96C98.4784 14.56 98.6984 15.21 98.7984 15.91C98.9184 16.59 98.9784 17.26 98.9784 17.92V28ZM106.013 28L100.433 12.25H105.383L108.833 23.68L112.283 12.25H116.783L111.233 28H106.013ZM125.606 28.3C124.266 28.3 123.076 28.09 122.036 27.67C120.996 27.23 120.106 26.64 119.366 25.9C118.646 25.16 118.096 24.31 117.716 23.35C117.336 22.37 117.146 21.35 117.146 20.29C117.146 18.77 117.476 17.39 118.136 16.15C118.816 14.89 119.786 13.88 121.046 13.12C122.306 12.34 123.826 11.95 125.606 11.95C127.386 11.95 128.896 12.33 130.136 13.09C131.396 13.85 132.356 14.85 133.016 16.09C133.676 17.31 134.006 18.64 134.006 20.08C134.006 20.36 133.986 20.64 133.946 20.92C133.926 21.18 133.906 21.41 133.886 21.61H122.246C122.306 22.31 122.496 22.9 122.816 23.38C123.156 23.86 123.586 24.23 124.106 24.49C124.626 24.73 125.176 24.85 125.756 24.85C126.476 24.85 127.146 24.68 127.766 24.34C128.406 24 128.846 23.54 129.086 22.96L133.166 24.1C132.766 24.92 132.196 25.65 131.456 26.29C130.736 26.91 129.876 27.4 128.876 27.76C127.896 28.12 126.806 28.3 125.606 28.3ZM122.126 18.67H128.966C128.886 18.01 128.696 17.44 128.396 16.96C128.096 16.46 127.696 16.08 127.196 15.82C126.696 15.54 126.146 15.4 125.546 15.4C124.926 15.4 124.366 15.54 123.866 15.82C123.386 16.08 122.996 16.46 122.696 16.96C122.396 17.44 122.206 18.01 122.126 18.67ZM143.711 28.3C142.371 28.3 141.181 28.09 140.141 27.67C139.101 27.23 138.211 26.64 137.471 25.9C136.751 25.16 136.201 24.31 135.821 23.35C135.441 22.37 135.251 21.35 135.251 20.29C135.251 18.77 135.581 17.39 136.241 16.15C136.921 14.89 137.891 13.88 139.151 13.12C140.411 12.34 141.931 11.95 143.711 11.95C145.491 11.95 147.001 12.33 148.241 13.09C149.501 13.85 150.461 14.85 151.121 16.09C151.781 17.31 152.111 18.64 152.111 20.08C152.111 20.36 152.091 20.64 152.051 20.92C152.031 21.18 152.011 21.41 151.991 21.61H140.351C140.411 22.31 140.601 22.9 140.921 23.38C141.261 23.86 141.691 24.23 142.211 24.49C142.731 24.73 143.281 24.85 143.861 24.85C144.581 24.85 145.251 24.68 145.871 24.34C146.511 24 146.951 23.54 147.191 22.96L151.271 24.1C150.871 24.92 150.301 25.65 149.561 26.29C148.841 26.91 147.981 27.4 146.981 27.76C146.001 28.12 144.911 28.3 143.711 28.3ZM140.231 18.67H147.071C146.991 18.01 146.801 17.44 146.501 16.96C146.201 16.46 145.801 16.08 145.301 15.82C144.801 15.54 144.251 15.4 143.651 15.4C143.031 15.4 142.471 15.54 141.971 15.82C141.491 16.08 141.101 16.46 140.801 16.96C140.501 17.44 140.311 18.01 140.231 18.67ZM169.467 28H164.667V19.15C164.667 18.11 164.467 17.36 164.067 16.9C163.687 16.42 163.177 16.18 162.537 16.18C162.097 16.18 161.647 16.3 161.187 16.54C160.727 16.78 160.307 17.11 159.927 17.53C159.567 17.95 159.287 18.43 159.087 18.97V28H154.287V12.25H158.607V14.89C159.007 14.27 159.507 13.74 160.107 13.3C160.707 12.86 161.397 12.53 162.177 12.31C162.957 12.07 163.807 11.95 164.727 11.95C165.747 11.95 166.567 12.14 167.187 12.52C167.827 12.88 168.307 13.36 168.627 13.96C168.967 14.56 169.187 15.21 169.287 15.91C169.407 16.59 169.467 17.26 169.467 17.92V28Z" fill="#FC9E47"/>
<path fill-rule="evenodd" clip-rule="evenodd" d="M8.45291 5C8.24037 5 8.05106 5.13436 7.98092 5.33498L4.61918 14.9504C4.50553 15.2754 4.74681 15.6154 5.09117 15.6154H13.4749C13.6875 15.6154 13.8768 15.481 13.9469 15.2804L17.3086 5.66502C17.4223 5.33996 17.181 5 16.8367 5H8.45291ZM19.784 5C19.5714 5 19.3821 5.13436 19.312 5.33498L15.9502 14.9504C15.8366 15.2754 16.0779 15.6154 16.4222 15.6154H24.806C25.0185 15.6154 25.2078 15.481 25.278 15.2804L28.6397 5.66502C28.7533 5.33996 28.5121 5 28.1677 5H19.784ZM30.6438 5.33498C30.7139 5.13436 30.9032 5 31.1158 5H39.4995C39.8439 5 40.0851 5.33996 39.9715 5.66502L36.6098 15.2804C36.5396 15.481 36.3503 15.6154 36.1378 15.6154H27.754C27.4097 15.6154 27.1684 15.2754 27.282 14.9504L30.6438 5.33498ZM3.86215 17.3845C3.64962 17.3845 3.46031 17.5189 3.39017 17.7195L0.0284255 27.3349C-0.0852218 27.6599 0.156058 27.9999 0.50041 27.9999H8.88416C9.0967 27.9999 9.286 27.8655 9.35615 27.6649L12.7179 18.0495C12.8315 17.7245 12.5903 17.3845 12.2459 17.3845H3.86215ZM14.7222 17.7195C14.7924 17.5189 14.9817 17.3845 15.1942 17.3845H23.578C23.9223 17.3845 24.1636 17.7245 24.0499 18.0495L20.6882 27.6649C20.6181 27.8655 20.4287 27.9999 20.2162 27.9999H11.8325C11.4881 27.9999 11.2468 27.6599 11.3605 27.3349L14.7222 17.7195ZM26.5263 17.3845C26.3138 17.3845 26.1245 17.5189 26.0543 17.7195L22.6926 27.3349C22.5789 27.6599 22.8202 27.9999 23.1646 27.9999H31.5483C31.7609 27.9999 31.9502 27.8655 32.0203 27.6649L35.3821 18.0495C35.4957 17.7245 35.2544 17.3845 34.9101 17.3845H26.5263Z" fill="url(#paint0_linear_88_62)"/>
<defs>
<linearGradient id="paint0_linear_88_62" x1="38.1523" y1="5" x2="-2.04022" y2="9.41138" gradientUnits="userSpaceOnUse">
<stop stop-color="#FFB571"/>
<stop offset="1" stop-color="#FB9435"/>
</linearGradient>
</defs>
</svg>
