<svg width="22" height="22" viewBox="0 0 22 22" fill="none" xmlns="http://www.w3.org/2000/svg">
<path d="M5.85705 1.44509C7.00005 2.27809 7.89005 3.41509 8.65004 4.50309L9.09205 5.14709L9.50905 5.76209C9.71763 6.06682 9.80681 6.43764 9.7596 6.80389C9.71239 7.17014 9.53209 7.50622 9.25305 7.74809L7.30205 9.19709C7.20779 9.26516 7.14144 9.36512 7.11532 9.47842C7.08921 9.59171 7.1051 9.71063 7.16005 9.81309C7.60205 10.6161 8.38805 11.8121 9.28805 12.7121C10.189 13.6121 11.441 14.4501 12.3 14.9421C12.4077 15.0026 12.5345 15.0195 12.6543 14.9893C12.7741 14.9592 12.8778 14.8843 12.944 14.7801L14.214 12.8471C14.4475 12.5369 14.792 12.3292 15.1752 12.2673C15.5585 12.2054 15.9508 12.2942 16.27 12.5151L16.933 12.9741C18.172 13.8341 19.503 14.8111 20.521 16.1141C20.6825 16.3219 20.7852 16.5692 20.8184 16.8303C20.8517 17.0913 20.8143 17.3565 20.71 17.5981C19.873 19.5511 17.755 21.2141 15.552 21.1331L15.252 21.1161L15.019 21.0961L14.761 21.0661L14.48 21.0281L14.175 20.9781C14.1216 20.9685 14.0683 20.9585 14.015 20.9481L13.679 20.8761C13.6203 20.8632 13.5616 20.8499 13.503 20.8361L13.137 20.7421L12.752 20.6321L12.35 20.5021C10.504 19.8761 8.16105 18.6461 5.75705 16.2421C3.35405 13.8391 2.12405 11.4961 1.49805 9.65009L1.36805 9.24809L1.25805 8.86309L1.16405 8.49709L1.08605 8.15109C1.06352 8.04273 1.04251 7.93405 1.02305 7.82509L0.973046 7.52009L0.933045 7.23909L0.904046 6.98109L0.884045 6.74809L0.868046 6.44809C0.787046 4.25209 2.46805 2.11909 4.41205 1.28609C4.64602 1.18506 4.90225 1.14659 5.15558 1.17447C5.40891 1.20234 5.65063 1.2956 5.85705 1.44509ZM13.992 5.04009L14.108 5.05309C14.836 5.18149 15.5045 5.53704 16.0179 6.06877C16.5314 6.60051 16.8632 7.28113 16.966 8.01309C17.0027 8.26627 16.9409 8.52387 16.7934 8.7329C16.646 8.94192 16.424 9.08648 16.1732 9.13682C15.9223 9.18716 15.6618 9.13946 15.445 9.00354C15.2283 8.86762 15.0719 8.65381 15.008 8.40609L14.985 8.29109C14.9448 8.0042 14.8224 7.73508 14.6325 7.51628C14.4426 7.29747 14.1934 7.13834 13.915 7.05809L13.76 7.02309C13.5089 6.97859 13.2843 6.83983 13.1321 6.6352C12.98 6.43057 12.9117 6.17553 12.9413 5.92224C12.971 5.66895 13.0963 5.43655 13.2916 5.27258C13.4869 5.1086 13.7375 5.02544 13.992 5.04009ZM14 2.00009C15.5913 2.00009 17.1175 2.63223 18.2427 3.75745C19.3679 4.88267 20 6.4088 20 8.00009C19.9998 8.25497 19.9022 8.50013 19.7272 8.68546C19.5522 8.8708 19.3131 8.98233 19.0587 8.99727C18.8042 9.0122 18.5537 8.92942 18.3582 8.76583C18.1628 8.60224 18.0371 8.37019 18.007 8.11709L18 8.00009C18.0004 6.98451 17.6143 6.00685 16.92 5.26562C16.2258 4.52439 15.2755 4.07514 14.262 4.00909L14 4.00009C13.7348 4.00009 13.4805 3.89474 13.2929 3.7072C13.1054 3.51966 13 3.26531 13 3.00009C13 2.73488 13.1054 2.48052 13.2929 2.29299C13.4805 2.10545 13.7348 2.00009 14 2.00009Z" fill="#3B4FA2"/>
</svg>
